<svg id="visual" viewBox="0 0 900 600" width="900" height="600" xmlns="http://www.w3.org/2000/svg" xmlns:xlink="http://www.w3.org/1999/xlink" version="1.1"><path d="M0 73L100 49L200 67L300 79L400 73L500 73L600 55L700 61L800 79L900 55L900 0L800 0L700 0L600 0L500 0L400 0L300 0L200 0L100 0L0 0Z" fill="#f6dc00"></path><path d="M0 169L100 157L200 169L300 145L400 157L500 169L600 127L700 139L800 145L900 157L900 53L800 77L700 59L600 53L500 71L400 71L300 77L200 65L100 47L0 71Z" fill="#b7a31b"></path><path d="M0 271L100 259L200 271L300 229L400 259L500 259L600 271L700 241L800 265L900 229L900 155L800 143L700 137L600 125L500 167L400 155L300 143L200 167L100 155L0 167Z" fill="#7b6e1f"></path><path d="M0 415L100 469L200 409L300 379L400 445L500 415L600 481L700 397L800 469L900 373L900 227L800 263L700 239L600 269L500 257L400 257L300 227L200 269L100 257L0 269Z" fill="#443d1b"></path><path d="M0 601L100 601L200 601L300 601L400 601L500 601L600 601L700 601L800 601L900 601L900 371L800 467L700 395L600 479L500 413L400 443L300 377L200 407L100 467L0 413Z" fill="#111111"></path></svg>