<svg id="visual" viewBox="0 0 900 600" width="900" height="600" xmlns="http://www.w3.org/2000/svg" xmlns:xlink="http://www.w3.org/1999/xlink" version="1.1"><g fill="#f6dc00"><circle r="52" cx="873" cy="195"></circle><circle r="17" cx="596" cy="548"></circle><circle r="18" cx="644" cy="374"></circle><circle r="29" cx="733" cy="317"></circle><circle r="21" cx="751" cy="421"></circle><circle r="44" cx="110" cy="447"></circle><circle r="40" cx="233" cy="443"></circle><circle r="16" cx="475" cy="52"></circle><circle r="22" cx="440" cy="297"></circle><circle r="37" cx="760" cy="1"></circle><circle r="37" cx="471" cy="557"></circle><circle r="43" cx="114" cy="219"></circle><circle r="45" cx="234" cy="125"></circle><circle r="23" cx="15" cy="191"></circle><circle r="42" cx="370" cy="528"></circle><circle r="28" cx="570" cy="180"></circle><circle r="23" cx="572" cy="299"></circle><circle r="39" cx="367" cy="147"></circle><circle r="24" cx="424" cy="420"></circle><circle r="18" cx="56" cy="307"></circle><circle r="30" cx="746" cy="192"></circle><circle r="39" cx="90" cy="117"></circle><circle r="21" cx="799" cy="527"></circle><circle r="43" cx="274" cy="297"></circle><circle r="33" cx="78" cy="597"></circle><circle r="27" cx="881" cy="419"></circle><circle r="23" cx="33" cy="18"></circle><circle r="34" cx="213" cy="545"></circle><circle r="28" cx="179" cy="19"></circle><circle r="49" cx="609" cy="76"></circle><circle r="16" cx="177" cy="340"></circle><circle r="26" cx="870" cy="312"></circle><circle r="25" cx="888" cy="25"></circle><circle r="31" cx="539" cy="456"></circle><circle r="18" cx="308" cy="2"></circle><circle r="30" cx="711" cy="595"></circle><circle r="27" cx="3" cy="399"></circle><circle r="31" cx="895" cy="579"></circle><circle r="44" cx="325" cy="388"></circle><circle r="45" cx="813" cy="99"></circle></g></svg>