<svg id="Layer_2" data-name="Layer 2" xmlns="http://www.w3.org/2000/svg" viewBox="0 0 180 64.44"><defs><style>.cls-1{fill:#fff;stroke-width:0}</style></defs><g id="Layer_1-2" data-name="Layer 1"><path class="cls-1" d="M3.2 59.49v3.6h-.67v-1.54H.67v1.54H0v-3.6h.67v1.49h1.86v-1.49h.67ZM6.88 62.53v.56h-2.7v-3.6h2.63v.56H4.85v.94h1.74v.55H4.85v.99h2.03ZM9.96 62.26h-1.8l-.36.83h-.69l1.62-3.6h.66l1.63 3.6h-.7l-.36-.83Zm-.22-.53-.68-1.57-.67 1.57h1.35ZM11.49 59.49h.67v3.04h1.88v.57h-2.55v-3.6ZM14.97 60.05h-1.19v-.57h3.06v.57h-1.19v3.04h-.67v-3.04ZM20.54 59.49v3.6h-.67v-1.54h-1.86v1.54h-.67v-3.6h.67v1.49h1.86v-1.49h.67ZM22.63 62.71l.23-.52c.29.23.75.4 1.19.4.56 0 .8-.2.8-.47 0-.78-2.14-.27-2.14-1.61 0-.58.46-1.08 1.45-1.08.43 0 .89.11 1.2.32l-.21.52c-.32-.19-.68-.28-.99-.28-.56 0-.78.22-.78.49 0 .77 2.14.27 2.14 1.59 0 .58-.47 1.07-1.46 1.07-.56 0-1.12-.17-1.42-.43ZM25.92 61.29c0-1.08.82-1.85 1.93-1.85.59 0 1.09.21 1.43.6l-.43.41c-.26-.28-.59-.42-.96-.42-.75 0-1.29.52-1.29 1.27s.54 1.27 1.29 1.27c.38 0 .7-.14.96-.43l.43.41c-.33.39-.84.6-1.43.6-1.1 0-1.92-.78-1.92-1.85ZM29.93 59.49h.67v3.6h-.67v-3.6ZM34.27 62.53v.56h-2.7v-3.6h2.63v.56h-1.96v.94h1.74v.55h-1.74v.99h2.03ZM38.22 59.49v3.6h-.55l-1.99-2.44v2.44h-.66v-3.6h.55l1.99 2.44v-2.44h.66ZM38.94 61.29c0-1.08.82-1.85 1.93-1.85.59 0 1.09.21 1.43.6l-.43.41c-.26-.28-.59-.42-.96-.42-.75 0-1.29.52-1.29 1.27s.54 1.27 1.29 1.27c.38 0 .7-.14.96-.43l.43.41c-.33.39-.84.6-1.43.6-1.1 0-1.92-.78-1.92-1.85ZM45.65 62.53v.56h-2.7v-3.6h2.63v.56h-1.96v.94h1.74v.55h-1.74v.99h2.03ZM46.09 62.71l.23-.52c.29.23.75.4 1.19.4.56 0 .8-.2.8-.47 0-.78-2.14-.27-2.14-1.61 0-.58.46-1.08 1.45-1.08.43 0 .89.11 1.2.32l-.21.52c-.32-.19-.68-.28-.99-.28-.56 0-.78.22-.78.49 0 .77 2.14.27 2.14 1.59 0 .58-.47 1.07-1.46 1.07-.56 0-1.12-.17-1.42-.43ZM55.22 59.42c.22 0 .37-.16.37-.38s-.15-.38-.37-.38-.38.16-.38.38.16.38.38.38ZM54.25 59.42c.22 0 .37-.16.37-.38s-.15-.38-.37-.38-.38.16-.38.38.16.38.38.38ZM63.01 63.36c-.22 0-.38.16-.38.38s.16.38.38.38.37-.16.37-.38-.15-.38-.37-.38ZM63.98 63.36c-.22 0-.38.16-.38.38s.16.38.38.38.37-.16.37-.38-.15-.38-.37-.38ZM76.89 61.59c0 .47-.19.68-.72.68-.36 0-.61-.22-.61-.57v-.24c0-.79-.43-1.46-1.64-1.46-.51 0-1.1.14-1.75.48v-.43h-.7v2.23h-1.58c-.22 0-.49-.13-.58-.36.03-.13.04-.27.04-.45 0-.89-.5-1.46-1.68-1.46-.22 0-.58.03-.96.18l.15.52c.26-.09.52-.12.7-.12.78 0 1.07.32 1.07.85 0 .58-.13.83-.82.83H64.59c-.45 0-.71-.23-.71-.61v-1.61h-.7v1.34c0 .57-.1.89-.86.89H56.59c-.42 0-.58-.1-.58-.49v-1.73h-1.27c-.88 0-1.47.48-1.47 1.36 0 .92.68 1.22 1.34 1.22.39 0 .68-.1.85-.18.19.33.59.4 1.11.4h5.83c.65 0 1.05-.13 1.27-.44.2.31.62.43.98.44h3.36c.51 0 .86-.13 1.07-.42.22.32.6.41.87.41H74.35c.5 0 .82-.14 1.01-.42.19.28.53.42.88.42.95 0 1.32-.37 1.32-1.13v-3.57h-.7v3.45Zm-21.6.31c-.17.08-.35.13-.63.13s-.72-.1-.72-.67c0-.59.36-.75.81-.75h.54v1.29Zm18.91.37h-2.03v-1.18c.51-.31 1.05-.5 1.63-.5.74 0 1.05.42 1.05.99 0 .45-.13.69-.65.69ZM78.56 58.14h.7v4.7h-.7zM83.97 60c-.87 0-1.32.63-1.41 1.52-.04.36-.07.58-.47.84-.29.19-.47.4-.47.88v1.19h.69v-.95c0-.51.14-.61.4-.77.12-.08.21-.18.27-.27.36.34.71.43 1.06.43.72 0 1.33-.49 1.33-1.44 0-.75-.42-1.42-1.39-1.42Zm.04 2.28c-.33 0-.58-.15-.83-.39.05-.79.33-1.29.81-1.29.41 0 .68.27.68.86 0 .38-.17.82-.65.82ZM101.53 58.14v3.45c0 .47-.19.68-.72.68-.45 0-.7-.23-.7-.61v-3.52h-.7v3.45c0 .47-.19.68-.72.68h-.68c-.17 0-.36-.02-.49-.06.5-.34.86-.79.86-1.23 0-.63-.56-.98-1.39-.98-.54 0-1.1.22-1.38.4-.05.13-.11.49-.13.67.5.33.74.65 1.09 1.09-.17.06-.39.11-.64.11h-.68c-.45 0-.7-.23-.7-.61v-3.52h-.7v3.45c0 .47-.19.68-.72.68h-4.27v-.95c0-.84-.55-1.32-1.33-1.32-.93 0-1.45.68-1.45 1.52 0 .79.45 1.32 1.55 1.32h.52c-.02.43-.29.57-.8.57-.25 0-.49-.05-.69-.1l-.1.54c.25.06.56.1.82.1.89 0 1.38-.38 1.47-1.12h4.37c.59 0 .95-.13 1.15-.42.2.31.61.42.97.42h.51c.41 0 .8-.1 1.13-.25.22.15.53.25.98.25h.83c.58 0 .95-.14 1.15-.42.2.31.61.42.97.42.94 0 1.32-.37 1.32-1.13v-3.57h-.7Zm-13.39 4.13h-.45c-.54 0-.91-.18-.91-.81 0-.7.41-.87.7-.87.47 0 .65.38.65.86v.82Zm8.9-.37c-.25-.38-.51-.75-.91-1.1.11-.07.47-.21.82-.21.5 0 .71.2.71.48s-.27.59-.62.83ZM28.63 37.6c.34-.27.87-.42 1.57-.42h11.62l4.42-3.89v-.05H29.77c-1.03 0-1.93.11-2.68.32-.75.21-1.36.55-1.83 1.01-.47.45-.82 1.06-1.03 1.81-.22.75-.34 1.65-.34 2.71v1.03c0 .9.08 1.69.26 2.34.18.66.48 1.2.93 1.64.45.45 1.04.77 1.81.98.75.21 1.72.32 2.87.32h9.92c.8 0 1.4.14 1.77.42.37.27.55.74.55 1.38v1.14c0 .71-.18 1.17-.55 1.41-.37.22-.96.35-1.8.35H28.33l-4.48 3.93h16.04c1.16 0 2.14-.11 2.94-.31.82-.21 1.46-.51 1.97-.95s.87-.98 1.09-1.67c.22-.67.34-1.51.34-2.49v-1.64c0-.93-.11-1.73-.34-2.41s-.58-1.22-1.09-1.65c-.51-.42-1.16-.74-1.97-.93-.8-.19-1.78-.29-2.94-.29h-9.73c-.75 0-1.28-.13-1.59-.4-.31-.29-.45-.74-.45-1.4v-.67c0-.83.16-1.38.5-1.65ZM65.73 34.84c-.35-.59-.8-1.08-1.3-1.46-.51-.39-1.24-.58-2.17-.58s-1.69.19-2.2.58c-.51.39-.95.87-1.32 1.46L46.67 54.06H52l2.97-4.8h14.4l3.02 4.8h5.36L65.72 34.84Zm-8.59 10.85 5.03-8.2 5.04 8.2H57.14ZM102.21 33.25l-4.59 4.03v9.46c0 .64-.06 1.19-.19 1.62-.14.42-.35.77-.63 1.03-.29.27-.67.45-1.16.55-.47.11-1.06.16-1.75.16h-6.98c-.69 0-1.27-.05-1.75-.16-.48-.1-.87-.27-1.14-.55-.29-.26-.5-.61-.63-1.03-.14-.4-.21-.95-.21-1.59V33.28l-4.66 4.09v9.54c0 1.33.11 2.44.37 3.34.26.92.69 1.64 1.3 2.2.61.56 1.43.96 2.44 1.22s2.3.39 3.82.39h7.8c1.54 0 2.83-.13 3.84-.39 1.03-.26 1.83-.66 2.44-1.22.61-.56 1.04-1.28 1.3-2.2.26-.9.39-2.01.39-3.34V33.25h-.02ZM16.2 54.06 4.61 43.9v10.16H0v-20.8h4.61v9.95l11.35-9.95h6.25l-11.9 10.1 12.23 10.71h-6.35ZM73.98 7.27v10.05c0 1.69-.61 3.1-1.83 4.25-1.2 1.14-2.67 1.7-4.35 1.7-1.36 0-2.6-.4-3.71-1.19-1.04.79-2.31 1.19-3.77 1.19-1.36 0-2.6-.4-3.69-1.19-1.08.77-2.26 1.16-3.53 1.16H41.49c-3.89 0-5.83-1.86-5.83-5.59V4.21L40.46 0v17.24c0 .48.11.8.32.96.22.16.55.24.98.24h11.33c.29 0 .56-.11.79-.34s.34-.5.34-.79v-5.86L59 7.26h.02v10.05c0 .75.45 1.12 1.33 1.12s1.35-.37 1.35-1.12v-5.86l4.75-4.17h.02l.03-.02v10.05c0 .75.45 1.12 1.33 1.12s1.33-.37 1.33-1.12v-5.83l4.82-4.22ZM102.22 15.91c0 2.04-.66 3.77-1.97 5.2-1.32 1.43-3.08 2.14-5.3 2.14H83.17c-3.89 0-5.83-1.86-5.83-5.59V4.27l4.8-4.21v17.18c0 .48.11.8.32.96.22.16.55.24.98.24h11.51c.75 0 1.35-.21 1.8-.64.45-.43.67-1 .67-1.69 0-.75-.5-1.49-1.49-2.22s-2.5-1.32-4.54-1.8L89.74 7.9l12.44-5.73v4.98l-4.82 2.23c3.24 1.72 4.86 3.89 4.86 6.52ZM21.86 7.97c-.98.47-1.72 1.12-2.21 1.94a9.12 9.12 0 0 0-1.05 2.52c-.21.86-.31 1.79-.31 2.8 0 1.97.65 3.8 1.94 5.49 1.29 1.69 2.84 2.54 4.65 2.54h1.27l.53-.53.89-.89.6-.6v1.23c0 .2-.02.39-.06.59-.28 1.45-1.72 2.4-3.2 2.4h-.08l-5.98 5.24h5.71c1.85 0 3.68-.58 5.11-1.74.04-.04.09-.07.13-.11.87-.73 1.51-1.46 1.92-2.18s.71-1.36.89-1.92c.18-.56.27-1.06.27-1.49V7.27H25.4c-1.4 0-2.58.24-3.57.7Zm6.24 10.48h-2.68c-.69 0-1.25-.34-1.68-1.01-.43-.67-.65-1.41-.65-2.21 0-2.1.78-3.16 2.33-3.16h2.68v6.38ZM147.78 64.44c-17.77 0-32.22-14.45-32.22-32.22S130.02 0 147.78 0 180 14.45 180 32.22s-14.45 32.22-32.22 32.22Zm0-63.51c-17.25 0-31.28 14.03-31.28 31.29s14.03 31.28 31.28 31.28 31.28-14.03 31.28-31.28S165.03.93 147.78.93Zm-.09 54.52c-12.81 0-23.23-10.42-23.23-23.23s10.42-23.23 23.23-23.23 23.23 10.42 23.23 23.23-10.42 23.23-23.23 23.23Zm0-45.53c-12.29 0-22.3 10-22.3 22.3s10 22.3 22.3 22.3 22.3-10 22.3-22.3-10-22.3-22.3-22.3Z"/><path class="cls-1" d="M119.6 29.56s-.11-.17-.35-.4l-.32.48s.05.08.12.17c.07.09.1.14.1.16 0 .04-.05.11-.12.22-.08.1-.13.17-.17.2.15.17.27.3.35.4.03-.03.08-.1.16-.2.08-.12.13-.21.16-.28-.08-.09-.15-.19-.22-.28.01 0 .06-.09.16-.23.09-.15.14-.22.14-.23ZM122.96 26.95l-.37.41.12.17c.07.09.1.14.1.15 0 .03-.05.1-.14.2-.08.09-.15.15-.19.18.14.17.25.3.33.4.04-.02.1-.08.19-.19.08-.1.14-.17.16-.22-.08-.1-.15-.19-.21-.28.23-.24.35-.37.35-.41 0-.04-.11-.18-.34-.4ZM125.09 19.3c-.1-.1-.18-.17-.23-.22-.14-.13-.25-.21-.33-.26-.44-.19-.69-.31-.75-.34l-.27-.69c-.03.06-.25.18-.64.37-.05.02-.12.02-.21-.01-.07-.02-.1-.04-.12-.04-.02.03.03.15.16.36l.24.37c.09-.03.17-.06.24-.09l.57.2c.35.12.57.21.67.27.04.02.06.04.06.05l-.29.51-.14.18c-.08-.08-.13-.13-.17-.14-.15-.07-.32-.06-.51.02-.18.07-.29.18-.35.31s-.09.33-.09.61c0 .22 0 .43.03.63l.07.53c.02.18.02.3 0 .36-.03.06-.07.1-.12.12a.16.16 0 0 1-.16-.03c-.02-.02-.08-.06-.17-.13-.07-.05-.12-.09-.17-.11a.467.467 0 0 0-.17-.03c.13.31.2.48.22.51.24.1.34.19.31.26l-.16.38-.08.3c-.1-.06-.17-.1-.21-.12-.13-.08-.21-.13-.24-.16-.06.25-.19.53-.39.84-.05.09-.2.25-.44.5-.19.2-.31.37-.35.52 0 .03-.02.06-.02.09-.02.13.02.28.13.45.09.14.2.26.33.37.08.05.12.07.11.07.02 0 .03 0 .04-.02 0-.05-.02-.08-.03-.1a.508.508 0 0 1-.02-.37c.01-.06.17-.29.48-.71.07.31.08.53.04.68l-.24.98-.02.08c-.01.08-.06.15-.12.2s-.14.07-.22.04a4.43 4.43 0 0 0-.72-.18c.01.02.08.11.2.25.12.13.19.22.22.25.28.06.45.1.51.14l-.17.97-.04.19c-.02.19-.07.31-.15.36-.04.03-.34.06-.87.09-.55.04-.86.07-.94.11.28.21.47.35.56.42.02 0 .06 0 .1-.02.04-.01.08-.02.1-.02.05.05.11.19.2.42.09.23.16.38.22.46.07.09.22.19.46.31.21.1.36.16.43.17.02-.17.11-.5.28-1v-.04c0-.08-.05-.16-.18-.24-.17-.1-.26-.17-.27-.21.27-.05.41-.08.42-.08a.34.34 0 0 0 .25-.3l.05-.42.16-.91c-.14-.12-.26-.22-.36-.3.28-.02.44-.14.48-.36l.06-.35.18-.74c.03-.11 0-.32-.07-.61-.08-.29-.11-.49-.08-.59.09-.31.15-.51.18-.58l.46.07.2-.72.08-.19c-.08-.11-.15-.19-.21-.25.23-.02.36-.08.4-.17l1.23-2.68.33-.59s.01-.02.02-.03a.3.3 0 0 0 .04-.1c0-.05 0-.09-.03-.11Zm-4.12 10.32c-.04.17-.06.29-.09.34a.345.345 0 0 1-.1-.13.976.976 0 0 0-.23-.34c-.05-.05-.08-.08-.08-.09.34-.05.53-.07.55-.06 0 .03-.02.13-.05.28Zm2.29-7.9c-.01-.18-.02-.32-.03-.41-.01-.23 0-.4.06-.52.11-.25.29-.38.56-.4l-.59 1.34ZM125.11 17.58c.34.21.57.49.69.83l-1.78-.82s-.11-.15-.24-.38c-.11-.22-.18-.35-.2-.39.23.1.4.17.51.22.38.18.72.36 1.02.54ZM126.85 15.09l.36.55c-.23.17-.4.32-.49.44-.17.23-.29.44-.33.64.26.11.46.21.6.32.09.07.21.19.37.38.18.22.26.35.22.4-.01.02-.47-.23-1.38-.74-.05-.03-.1-.11-.14-.23-.02-.08-.04-.18-.07-.29-.03-.12.04-.38.2-.77-.16 0-.28.05-.35.14-.06.07-.08.2-.06.38.01.18.02.27.02.26-.01.01-.06-.05-.14-.21-.09-.17-.16-.33-.2-.47-.08-.25-.07-.44.03-.57.08-.11.31-.17.69-.2.01 0 .24-.01.67-.04ZM133.21 10.56c-.05-.13-.08-.23-.11-.3-.06-.17-.12-.3-.18-.38-.31-.37-.48-.58-.52-.63l.06-.74c-.05.04-.3.05-.74.04-.05 0-.12-.03-.18-.1l-.09-.09c-.03.02-.04.15-.02.39l.05.44c.09.01.18.02.25.03l.42.44c.26.27.42.44.48.54.03.04.04.06.03.07l-.46.31h-.01l-.05.03-.06.05c-.06.05-.13.03-.19-.06-.05-.07-.3-.34-.73-.81-.46-.5-.7-.74-.73-.73 0 .32 0 .58.02.79l1.19 1.14-.44.34-.31.24s-.03-.1-.04-.23c-.01-.11-.04-.2-.08-.24-.07-.09-.2-.13-.37-.15a.764.764 0 0 0-.59.2c-.1.09-.19.21-.26.35-.06.12-.08.19-.07.21 0 .06.03.17.07.33.04.18.07.28.08.3.06-.07.1-.13.15-.17.08-.07.19-.11.3-.12.09 0 .17 0 .24.03l-.76.67-.06.06c-.06.06-.12.05-.2-.03-.06-.06-.34-.3-.83-.71-.52-.44-.79-.65-.81-.63.04.32.08.58.12.78l1.32.98-.38.38-.25.25c-.14-.1-.3-.18-.5-.26-.32-.13-.53-.13-.64 0-.13.14-.11.4.06.79.14.31.25.51.35.6.13.12.3.12.51 0 .13-.08.26-.18.39-.33.02.26-.02.55-.12.9-.04.14-.11.26-.21.37a1.7 1.7 0 0 1-.33.27c-.09.06-.13.1-.1.13.07.06.23.02.51-.12.26-.13.44-.26.55-.38.12-.14.17-.36.15-.67a1.91 1.91 0 0 0-.21-.77l.22-.22.3-.3c-.07-.24-.11-.4-.14-.47l.23.21c.06.06.12.06.17 0l.41-.4.71-.63c-.02-.17-.04-.3-.06-.37.16.05.28.1.35.12l.47-.39.34-.26a3.7 3.7 0 0 0-.08-.48l.2.24c.05.06.11.07.17.03l.43-.33.5-.34s.02-.01.03-.02c.03-.02.05-.04.07-.07.03-.04.04-.08.02-.12Zm-5.14 3.7c-.06.07-.13.12-.2.15-.1.04-.17.04-.22-.01-.04-.14-.04-.23 0-.28.04-.05.12-.06.23-.04.08.02.16.04.24.08.02.02 0 .05-.05.11ZM134.45 7.52s.08-.1.14-.24c.06-.15.09-.23.08-.26 0-.01-.1-.04-.27-.08-.18-.04-.27-.06-.28-.05-.02.01-.06.1-.11.26s-.07.25-.06.27c0 .02.09.04.24.07.15.03.24.04.26.03ZM137.79 8.2c-.04-.2-.09-.38-.13-.54v-.04c-.05-.13-.09-.23-.13-.32a.768.768 0 0 0-.1-.18c-.13-.18-.37-.37-.72-.56-.03.35-.06.57-.08.67.1.04.23.12.38.24.11.09.2.17.26.23l-1.25.56-.14.07c-.12.07-.26.08-.41.05-.09-.02-.21-.08-.36-.17-.15-.09-.25-.14-.32-.16-.02.25-.03.47-.03.65-.01-.02.07 0 .25.08.17.07.28.15.33.23.06.1 0 .35-.19.75-.15.32-.3.53-.47.62-.07.04-.21.07-.43.1-.1.01-.17.02-.2.01v.01c.04.08.26.1.64.09.37-.02.61-.06.72-.12.18-.1.29-.34.34-.72a2.1 2.1 0 0 0 0-.71c.04.02.1 0 .19-.02.05-.02.09-.03.11-.04l.17-.09 1.58-.71Z"/><path class="cls-1" d="M137.4 8.82s-.03.08-.07.2c-.04.11-.06.16-.07.17a1.123 1.123 0 0 1-.5-.06c-.06.22-.11.38-.15.5.05.02.14.04.27.05.13.01.22.02.28.01.04-.12.08-.24.12-.34.02 0 .11.02.28.04.16.02.25.03.26.02.04-.02.09-.19.14-.51l-.55-.07ZM138.35 5.8s.09-.08.18-.22c.09-.13.12-.21.11-.24 0-.01-.09-.05-.26-.12s-.26-.1-.27-.09c-.02 0-.07.09-.14.24s-.11.24-.1.26c0 .02.08.05.23.1.15.05.23.08.25.07ZM142.49 5.1l.34-.66c-.06.01-.3-.07-.7-.25-.05-.02-.09-.08-.13-.17-.02-.07-.04-.1-.04-.12-.04 0-.09.12-.17.35l-.13.42c.08.05.16.09.22.12l.22.57c.13.34.21.57.23.68v.08l-.53.1-.38.09s.02-.1.06-.22c.04-.11.05-.19.03-.26-.03-.11-.12-.21-.27-.29a.788.788 0 0 0-.62-.08c-.13.04-.26.1-.39.21-.1.08-.15.13-.16.16-.02.06-.04.17-.08.33-.04.18-.06.28-.06.3.08-.04.15-.07.21-.08.11-.03.22-.02.33.02.08.03.15.07.2.13l-.91.25-.15.05c-.13.05-.27.04-.41-.02-.09-.04-.2-.11-.33-.22s-.23-.18-.29-.21c-.06.25-.1.46-.13.64 0-.02.07.02.23.12.16.1.26.19.29.28.04.11-.06.35-.3.72-.19.29-.38.47-.56.54-.07.03-.22.03-.44.03-.1 0-.17 0-.2-.02v.02c.03.08.24.14.62.18.37.04.61.04.73 0 .19-.07.34-.29.45-.66.08-.27.12-.5.11-.7.04.02.1.02.19.01.05 0 .09-.02.11-.03l.2-.07 1-.27c.06-.16.09-.29.11-.36l.26.26.58-.15.66-.13h.03c.03 0 .06-.02.1-.04.04-.02.07-.06.07-.1 0-.14.01-.25.02-.32 0-.18 0-.33-.02-.42-.14-.46-.22-.72-.23-.79ZM144.04 5.53c.06.4 0 .75-.18 1.06l-.54-1.89s.04-.18.13-.43c.09-.23.14-.36.17-.4.08.24.13.42.17.53.12.41.2.78.26 1.12ZM148.26 7.04c-.15-.13-.23-.2-.24-.2-.03 0-.11.06-.25.19s-.21.2-.21.23c0 .02.07.09.2.2.14.11.22.17.24.17.03 0 .12-.05.26-.16s.21-.17.21-.2c0-.01-.07-.09-.22-.22ZM151.78 5.85c-.13-.01-.33-.03-.59-.05-.26-.02-.46-.03-.59-.05-.1 0-.16-.03-.19-.05-.12-.09-.23-.2-.34-.32-.1-.11-.15-.18-.14-.2 0-.02.05-.03.14-.05.13-.03.3-.03.51-.01.26.02.47.08.61.16.08.04.17.13.28.24.03-.13-.03-.31-.17-.54-.16-.27-.36-.41-.6-.44-.19-.02-.43.07-.71.26-.2.14-.32.24-.37.31-.12.11-.19.23-.2.34l-.02.17-.45-.02h-.1c-.08 0-.16-.03-.22-.09s-.09-.13-.07-.21c.05-.29.07-.53.06-.74-.02.02-.09.1-.21.24-.11.14-.18.22-.21.26-.01.29-.03.46-.06.52l-.99-.02h-.27c-.07 0-.15-.1-.23-.32-.04-.14-.09-.27-.13-.41-.13-.41-.25-.73-.33-.95-.01.03-.07.15-.15.36s-.13.32-.13.33l.16.46c.11.31.17.5.17.57l-1.15.09c-.1 0-.15-.06-.16-.2v-.34c-.05.02-.09.08-.12.17-.02.06-.03.11-.04.15-.03.3-.05.55-.06.75 0 .04.02.08.05.11.03.03.07.04.11.04l1.21-.09c.06 0 .11-.06.15-.18.05-.13.09-.2.11-.22.01.02.05.1.11.25.03.07.07.11.12.11l.49-.02h.92c.09-.15.17-.28.24-.39.06.27.21.41.44.42h.36l2.34.22.45-.64ZM153.98 5.4s.13-.02.28-.09.23-.12.24-.14c0-.01-.05-.1-.15-.25-.11-.16-.17-.24-.18-.24-.02 0-.11.04-.27.13-.15.09-.23.15-.24.17 0 .02.04.09.14.22s.16.2.18.21ZM155.69 7.86s-.13.03-.3.1-.26.13-.27.15c0 .02.04.1.13.25.1.15.16.23.18.24.03.01.13-.01.3-.07s.25-.1.26-.13c0-.01-.04-.11-.14-.28-.1-.17-.15-.26-.17-.27ZM157.04 6.26c-.04-.2-.08-.34-.14-.42-.31.27-.49.43-.53.47.07.13.12.29.13.5v.28l-1.11-.37-.18-.07c-.11-.03-.19-.11-.23-.26-.07-.24-.12-.42-.16-.54-.25.24-.41.4-.49.48.08.19.14.39.16.6.02.17.02.29 0 .36-.05.05-.19.07-.42.06-.2 0-.36-.02-.47-.05-.16-.04-.31-.1-.44-.2-.19-.14-.27-.29-.23-.46.05-.19.18-.41.41-.66l.02-.15c-.13.1-.27.22-.41.37-.24.27-.4.54-.47.82-.1.42.19.71.87.87.12.03.29.03.51.02.21-.02.37-.05.46-.1s.21-.15.34-.31c.11-.13.17-.23.18-.28l.28.09 1.41.47c.07-.09.2-.27.38-.57.1-.2.15-.37.16-.51.01-.11 0-.26-.03-.45ZM159.67 8.41c-.19.41-.35.58-.49.51l-1.27-.58.34-.57 1.07.49c.03-.08.03-.2 0-.35-.03-.14-.07-.25-.12-.33-.05-.08-.13-.18-.22-.29.15-.18.31-.35.47-.52.05.04.11.12.17.23.08.14.14.27.17.4.06.24.06.49-.01.75-.01.05-.05.14-.1.26ZM165.91 11.99c-.2.04-.31.08-.34.12-.02.03-.08.11-.16.24l-.36-.3s0-.02.02-.03c.06-.08.27-.23.61-.46-.04-.03-.15-.03-.32.01-.13.03-.23.06-.32.09-.11.07-.18.14-.23.19-.12-.09-.23-.17-.31-.24-.18-.15-.26-.24-.26-.28.07-.03.17-.09.29-.17.14-.1.26-.2.34-.3.03-.04.04-.06.02-.06-.17 0-.39.05-.64.13-.09.11-.19.19-.28.22l-.55-.43-.26-.18s.09-.05.21-.1c.11-.04.18-.09.21-.14.06-.09.08-.23.05-.4a.75.75 0 0 0-.35-.52c-.11-.08-.25-.13-.41-.16-.13-.02-.2-.03-.22-.02l-.3.15c-.17.09-.25.14-.27.15.08.03.15.07.2.1.09.06.16.15.2.26.03.08.04.16.04.24l-.77-.52-.3-.18c.06-.15.11-.34.15-.54.05-.34 0-.55-.14-.63-.17-.09-.42-.02-.76.23-.27.2-.44.36-.51.47-.09.16-.05.32.11.5.1.11.24.22.4.31-.25.08-.55.1-.9.08-.14 0-.28-.05-.4-.12-.09-.05-.2-.14-.33-.26-.08-.08-.13-.1-.15-.07-.04.08.03.23.23.47.18.23.35.38.49.46.16.09.39.09.69 0 .28-.08.51-.21.7-.37l.28.16.87.59c.16-.06.28-.12.35-.15 0 .17-.02.29-.03.37l.61.41.32.25c.03.02.07.02.13.01.02 0 .07-.01.14-.03 0 .03-.02.09-.07.19l.68.56c.08 0 .13 0 .14-.01v.13l.69.57.39-.22c.06 0 .16-.09.3-.26l.46-.55c-.06 0-.18 0-.37.05Zm-4.87-2.84s-.05.01-.11-.02a.6.6 0 0 1-.19-.16c-.06-.09-.07-.16-.04-.22.13-.07.22-.09.28-.06.05.03.08.1.09.22 0 .09 0 .17-.03.25ZM167.85 13.92c.18.2.38.3.6.29.15 0 .28-.05.37-.13.08-.07.07-.17-.03-.29-.12-.15-.18-.25-.17-.32.08 0 .26.11.52.31.21-.04.35-.08.43-.12-.12-.14-.37-.25-.72-.34-.36-.08-.6-.08-.71 0-.08.07-.09.16-.01.28.08.12.13.21.18.27-.06 0-.19-.06-.38-.19s-.29-.19-.3-.19c0 .03.03.1.1.22.06.09.11.16.14.19Z"/><path class="cls-1" d="M171.86 16.46s-.15-.04-.39-.04c-.11 0-.26.01-.44.03-.02.09-.03.18-.04.25l-.43.4c-.27.25-.45.41-.55.47-.04.03-.07.04-.08.03l-.34-.51-.05-.07c-.05-.06-.03-.13.06-.19.07-.05.35-.29.83-.71.51-.45.76-.69.74-.71h-.79l-1.17 1.16-.4-.63c-.08-.09.01-.27.27-.54.17-.16.34-.32.5-.48.47-.49.69-.75.67-.78-.31.04-.56.08-.75.12l-1.08 1.23-1.55-1.77a.336.336 0 0 1-.07-.31c.03-.12.08-.21.17-.29.04-.03.1-.07.18-.12a.71.71 0 0 0 .17-.11l.02-.02s0-.01.01-.02c-.1 0-.24.03-.43.12-.18.08-.31.17-.4.25-.15.14-.24.29-.27.47-.03.19.03.35.16.51l1.37 1.55.47-.11-.25.22s-.05.08-.02.13l.33.45.25.35c.25-.03.41-.05.48-.07l-.24.19c-.06.05-.07.11-.03.17l.33.46.3.47c.01.02.03.05.06.09.03.04.05.07.06.09.07.1.1.19.1.28-.03.14-.05.25-.08.31.26.02.47-.03.64-.14.07-.05.1-.17.08-.38-.02-.21-.01-.34.03-.38.38-.3.6-.47.65-.5.28.03.53.06.74.08-.03-.06-.04-.31-.03-.75 0-.07.07-.15.21-.24ZM171.21 19.12c-.35.2-.7.28-1.06.22l1.56-1.19s.18-.03.45-.03h.44c-.19.16-.34.28-.44.35-.34.26-.65.47-.95.65ZM173.39 19.87s-.01.11-.02.28-.01.26 0 .27c.01.03.18.09.5.17l.04-.57s-.08-.04-.19-.09c-.1-.04-.16-.07-.17-.09-.02-.03-.02-.12 0-.25.01-.13.03-.21.05-.26-.22-.07-.39-.13-.5-.17-.01.04-.03.12-.04.25-.01.15-.01.25 0 .32.12.04.23.09.33.13ZM174.61 25.62a.601.601 0 0 0-.14-.24c-.05-.06-.09-.1-.12-.13-.08-.09-.17-.17-.26-.23-.17-.12-.38-.19-.61-.23-.11-.01-.2-.02-.26-.03l-.1-.37-.02-.07v-.01l-.1-.29s.1.01.23.04c.11.03.2.03.26.01.11-.04.2-.13.27-.29.1-.2.11-.4.03-.62-.05-.13-.12-.25-.23-.37-.09-.1-.14-.14-.17-.14l-.33-.06c-.19-.03-.29-.04-.31-.03.05.08.08.14.1.2.04.1.04.21 0 .33-.02.09-.06.16-.11.21l-.31-.87-.07-.19c-.08-.17-.09-.3-.05-.39.03-.05.26-.22.71-.51.46-.3.71-.49.76-.56-.35-.04-.58-.07-.7-.09a.23.23 0 0 0-.08.07c-.03.03-.06.06-.08.07-.07-.02-.2-.11-.38-.26-.19-.16-.33-.25-.42-.29-.1-.04-.28-.05-.55-.04-.23.02-.39.04-.46.07.07.15.16.49.26 1.01 0 .01 0 .02.01.04.03.07.12.11.27.12.2 0 .31.02.34.05-.21.18-.31.27-.32.28-.1.12-.12.25-.06.38l.17.38.35.99c.17.04.29.07.37.08-.11.13-.19.22-.24.28l.21.61.08.29c.02.07.11.12.26.15.16.03.24.06.25.09l-.1 1.04s.11.06.31.12.32.09.36.08c.11-.03.23-.09.37-.17l.35-.22.22-.13c.04-.03.04-.08.03-.14Zm-2.47-4.56c-.06-.17-.09-.28-.09-.34.05 0 .1.02.15.07.1.09.23.15.37.17.07.02.11.03.11.04-.27.21-.42.32-.45.33-.01-.03-.05-.12-.1-.27Zm1.54 4.61.08-.5c.11.09.17.17.19.26.02.06-.07.14-.27.24ZM172.93 29.11c-.15-.12-.24-.18-.26-.18-.04 0-.13.21-.29.6 0 .02.09.1.27.22.15.11.24.17.26.17 0-.02.04-.12.12-.31s.13-.28.13-.28c0-.02-.08-.1-.23-.22ZM174.84 28.35c-.1-.09-.23-.17-.4-.25-.14-.07-.21-.1-.21-.09.12.2.19.36.2.47 0 .06-.03.2-.11.42-.07.19-.11.3-.13.33-.08-.1-.13-.27-.15-.51l-.16-1.06-.02-.1c-.03-.15-.04-.24-.02-.27.71-.22 1.41-.43 2.11-.63-.36-.17-.56-.27-.59-.28-1.49.41-2.25.62-2.26.65l.15.77.13.85c.01.11.09.27.24.5.15.22.23.39.24.51 0 .09.02.32.04.67 0 .15.01.25.01.31.27.15.46.26.59.33 0-.2.06-.53.2-.98.04-.11.1-.27.18-.46.08-.18.13-.31.16-.4.04-.14.05-.29.04-.44-.01-.12-.09-.23-.24-.35ZM173.92 30.65h-.01c0 .09.01.09.01 0ZM122.01 37.15l1.17.45.1.54-1.25-.47-1.38 1.01-.1-.56 1-.7-.33-.13-.79.14-.09-.5 2.64-.47.09.5-1.06.19ZM122.78 38.86l-1.97.46-.11-.47 1.97-.46.11.47Zm.68-.15-.43.1-.11-.47.43-.1.11.47ZM122.98 39.61l-.23.06c.11.03.2.07.27.14s.11.15.14.25c.04.15.03.27-.03.38-.06.1-.19.18-.39.24l-1.44.41-.13-.46 1.34-.38c.1-.03.17-.06.2-.11.03-.04.04-.1.02-.17-.05-.16-.18-.21-.39-.15l-1.29.37-.13-.46 1.95-.55.13.44ZM121.98 42.75c-.25.09-.45.1-.61.03s-.29-.24-.39-.5c-.07-.19-.08-.36-.03-.49.05-.14.16-.23.32-.29l.15.43a.18.18 0 0 0-.12.12c0 .03-.01.06-.01.08s0 .06.01.09c.03.09.09.15.16.16s.16 0 .26-.03l.25-.09a.632.632 0 0 1-.23-.12.38.38 0 0 1-.14-.19.484.484 0 0 1 .08-.49c.12-.14.35-.28.69-.4.11-.04.23-.07.35-.1.12-.03.23-.04.34-.04.11 0 .2.03.29.09.09.05.15.14.19.26.02.06.03.14.01.22-.01.08-.06.16-.15.24s.21-.07.21-.07l.15.43-1.81.65Zm.29-1.12c-.06.03-.11.06-.15.09-.04.03-.07.07-.09.11-.02.04-.02.08 0 .13s.05.08.08.11c.04.02.08.03.14.04.05 0 .12 0 .19-.02s.15-.04.23-.07c.23-.08.39-.16.47-.23.08-.07.11-.15.08-.24-.02-.05-.04-.09-.08-.11-.03-.02-.08-.03-.14-.03s-.13.01-.22.04-.2.06-.33.11a.75.75 0 0 0-.18.08ZM123.25 44.06c-.06.03-.11.06-.15.09-.04.03-.07.06-.09.1-.02.04-.03.08-.03.13s.01.1.04.16c.03.07.09.12.16.15.08.03.16.02.27-.02.05-.03.1-.05.13-.09a.24.24 0 0 0 .07-.12c.02-.05.03-.1.03-.17 0-.06 0-.14-.01-.23-.01-.12-.01-.22 0-.32 0-.09.03-.18.06-.26.03-.08.08-.14.15-.2s.15-.11.25-.16c.24-.11.45-.14.63-.07s.32.21.42.43c.05.1.08.2.1.3s.01.19-.01.28c-.02.09-.07.17-.14.24-.07.07-.16.14-.27.19l-.07.03-.21-.44c.12-.05.2-.12.24-.18.04-.07.05-.15 0-.23a.36.36 0 0 0-.08-.12c-.03-.03-.07-.04-.1-.05s-.07 0-.11 0c-.04 0-.07.02-.11.04-.07.04-.13.08-.17.13-.04.05-.05.14-.05.26v.43c0 .11 0 .2-.02.27s-.05.14-.08.2c-.04.06-.08.11-.14.15-.06.04-.12.08-.2.12-.26.12-.48.14-.66.06-.18-.08-.33-.25-.45-.49-.12-.26-.15-.47-.08-.64.07-.17.21-.3.44-.41l.1-.05.22.45-.07.03ZM124.47 44.99c.1-.06.2-.09.28-.1.09 0 .16 0 .24.03.07.03.14.07.19.13a.8.8 0 0 1 .15.21c.07.13.11.24.13.33.02.09.01.17-.01.24a.44.44 0 0 1-.12.18c-.06.05-.13.1-.21.14l-.93.52c-.08.05-.15.09-.19.12-.04.03-.08.07-.13.12l-.22-.4s.04-.06.07-.08c.03-.02.06-.05.08-.07-.12 0-.21-.03-.27-.08s-.12-.12-.18-.23a.42.42 0 0 1-.06-.21c0-.07.01-.13.05-.19.03-.06.07-.11.13-.16.05-.05.11-.09.17-.12.08-.05.16-.08.23-.1.07-.02.13-.02.2-.01.06 0 .12.03.18.07s.12.08.18.15l.2.2c.05.05.1.08.15.09.04 0 .1 0 .16-.04.07-.04.11-.08.13-.13.02-.05.01-.11-.03-.18-.04-.07-.08-.1-.14-.11-.06 0-.12 0-.19.04l-.05.03-.21-.38.04-.02Zm-.06.93s-.06-.05-.08-.07c-.07-.07-.13-.12-.2-.13a.31.31 0 0 0-.22.05c-.07.04-.12.08-.15.13s-.04.11 0 .16c.02.03.04.06.06.08.03.03.06.04.09.06.04.01.08.02.12.02.04 0 .09-.02.14-.05l.35-.19s-.08-.03-.11-.06ZM124.78 47.9a.46.46 0 0 1-.29-.05.663.663 0 0 1-.21-.2c-.08-.13-.11-.25-.08-.37s.13-.23.3-.34l1.26-.81.26.41-1.17.76c-.09.06-.14.11-.16.16-.02.05 0 .11.03.17.09.14.23.15.42.03l1.13-.73.26.41-1.7 1.1-.25-.39.2-.13ZM125.81 49.39c-.11.01-.2 0-.27-.03s-.13-.09-.19-.16a.458.458 0 0 1-.06-.5c.08-.17.26-.37.57-.59.3-.22.55-.35.74-.37.19-.02.34.04.46.2.05.07.08.15.09.22 0 .08 0 .16-.04.25s.68-.5.68-.5l.29.39-2.16 1.6-.27-.37.17-.13Zm-.05-.56c-.07.09-.08.18-.01.26.06.09.15.11.26.07.11-.04.25-.13.43-.26s.3-.24.37-.33c.07-.09.07-.18.01-.27-.06-.08-.15-.11-.26-.06-.11.04-.25.13-.43.26s-.3.24-.37.33ZM129.05 49.45l-.63.57c.09-.01.18 0 .25.01.07.02.14.06.2.13.13.15.17.31.11.49-.06.18-.23.4-.51.65s-.51.4-.69.44a.456.456 0 0 1-.47-.16.404.404 0 0 1-.12-.22c-.02-.07 0-.16.03-.27s-.16.14-.16.14l-.31-.34 1.99-1.8.32.36Zm-1.58 1.49c-.06.1-.06.19.02.27.07.08.16.09.26.04.1-.05.24-.15.4-.3.16-.15.28-.27.34-.37.06-.1.06-.19-.01-.26-.07-.08-.16-.09-.26-.04-.1.05-.24.15-.4.3-.16.15-.28.27-.34.37ZM129.76 51.15l-1.43 1.43-.34-.34 1.43-1.43.34.34Zm.49-.49-.31.31-.34-.34.31-.31.34.34ZM130.31 51.68l-.16.18a.52.52 0 0 1 .55.12c.11.1.17.22.17.34 0 .12-.07.26-.2.41l-1.01 1.11-.36-.32.94-1.03c.07-.08.11-.14.11-.2 0-.05-.02-.1-.07-.15-.13-.11-.26-.09-.41.08l-.9.99-.36-.32 1.36-1.5.34.31ZM133.07 53.1l-1.08 2.55-.42-.31.25-.52-.53-.4-.43.39-.42-.31 2.14-1.76.5.37Zm-1.05 1.3.53-1.11-.92.82.39.29ZM134.05 53.77l-.46.72c.09-.04.17-.06.24-.05.08 0 .15.03.23.08.17.11.24.26.23.45-.01.19-.12.44-.32.76s-.39.52-.56.6c-.17.09-.33.08-.5-.03-.08-.05-.14-.11-.18-.18s-.05-.16-.04-.26-.12.18-.12.18l-.39-.25 1.45-2.26.41.26Zm-1.14 1.85c-.03.11 0 .2.08.25.09.06.18.05.26-.03.09-.08.19-.21.31-.39.12-.19.2-.33.23-.44.03-.11 0-.19-.08-.25-.09-.06-.18-.05-.27.03-.09.08-.19.21-.31.39-.12.19-.2.33-.23.44ZM134.67 57.02c-.09.06-.18.09-.25.09-.08 0-.16-.02-.24-.07-.17-.1-.26-.24-.26-.43s.09-.45.27-.77c.18-.33.36-.54.52-.64.16-.1.33-.1.5 0 .08.04.14.1.17.17.04.07.06.15.06.24s.41-.74.41-.74l.42.23-1.3 2.35-.4-.22.1-.19Zm-.27-.49c-.03.11 0 .19.1.25.09.05.18.04.26-.05.08-.08.18-.22.28-.41.11-.19.17-.35.2-.46.03-.11 0-.2-.1-.25-.09-.05-.18-.04-.26.05-.08.08-.18.22-.28.41-.11.19-.17.35-.2.46ZM136.29 57.81c-.09.07-.18.11-.27.11-.09 0-.19-.02-.28-.06-.14-.07-.23-.16-.27-.27-.04-.11-.01-.26.07-.45l.64-1.36.44.21-.6 1.26c-.04.1-.06.17-.05.22.01.05.05.09.12.12.15.07.28 0 .37-.19l.57-1.21.44.21-.86 1.83-.42-.2.1-.21ZM138.46 56.08l-1.03 2.48-.45-.18 1.03-2.48.45.18ZM138.3 57.35c.04-.11.09-.2.15-.26s.13-.11.2-.13c.07-.03.15-.04.23-.03s.17.03.25.06c.14.05.24.1.31.16s.12.12.15.19.04.14.03.22c0 .08-.03.16-.06.24l-.36 1c-.03.09-.05.16-.06.21 0 .05-.01.11-.01.18l-.43-.16v-.11c0-.04 0-.07.01-.11-.09.08-.17.12-.25.13s-.17-.01-.28-.05c-.08-.03-.14-.07-.18-.12s-.07-.11-.09-.17a.45.45 0 0 1 0-.2c0-.07.02-.14.05-.2.03-.09.07-.16.11-.22s.09-.1.14-.14c.05-.03.11-.06.18-.07.07-.01.14-.01.23 0l.28.02c.07 0 .13 0 .17-.03.04-.02.07-.07.09-.13.03-.07.03-.14.01-.19-.02-.05-.06-.09-.14-.12a.188.188 0 0 0-.18.01c-.05.03-.09.09-.12.16l-.02.05-.41-.15.02-.05Zm.56.73h-.11c-.1-.01-.18 0-.24.04s-.1.1-.13.18c-.03.07-.04.14-.03.2 0 .06.04.1.1.13.03.01.06.02.1.02.04 0 .07 0 .11-.02.04-.01.07-.04.1-.07.03-.03.06-.07.07-.13l.13-.38-.12.03ZM140.56 57.94l-.69-.2.12-.4 1.23.36-.11.38-1.06.95.72.21-.12.4-1.27-.37.11-.38 1.06-.95ZM141.93 57.86l-.48 1.97-.47-.11.48-1.97.47.11Zm.16-.67-.1.43-.47-.11.1-.43.47.11ZM142.82 58.48l-.7-.14.08-.41 1.26.25-.08.39-.97 1.04.74.14-.08.41-1.3-.25.08-.39.97-1.04ZM144.84 59.59v.19c0 .06.01.11.03.15.02.04.04.08.08.11s.08.04.14.05c.06 0 .11 0 .15-.02.04-.02.07-.05.1-.09a.35.35 0 0 0 .06-.14l.03-.18.18-1.86.5.05-.18 1.86c-.02.17-.05.31-.11.41-.05.11-.12.19-.2.25s-.17.09-.27.11c-.1.01-.2.01-.3 0-.1 0-.2-.03-.29-.06s-.17-.08-.24-.15c-.07-.07-.12-.16-.15-.28s-.04-.26-.02-.44l.18-1.86.5.05-.18 1.86ZM146.74 58.51v.24c.05-.1.12-.17.21-.21.08-.04.18-.06.28-.06.15 0 .27.05.35.15.08.09.12.24.11.44l-.05 1.5h-.48l.04-1.41c0-.11-.01-.18-.04-.22s-.08-.06-.16-.07c-.17 0-.26.1-.26.33l-.04 1.34h-.48l.06-2.04h.46ZM148.52 57.83v.44h-.48v-.44h.48Zm.01.69.02 2.02h-.48l-.02-2.02h.48ZM150.19 58.43l-.34 2.05-.56.04-.61-1.99.5-.03.36 1.43.16-1.46.48-.03ZM150.88 59.61c0 .06.02.12.03.17.01.06.03.1.06.14.02.04.05.07.09.1.03.02.07.03.12.03.08 0 .14-.05.17-.12.03-.07.04-.16.04-.29l.43-.05c.02.24-.02.42-.11.56-.09.14-.25.22-.48.24-.17.02-.31 0-.42-.04a.59.59 0 0 1-.25-.22c-.06-.1-.1-.21-.13-.33a2.5 2.5 0 0 1-.06-.38c-.02-.13-.02-.26-.02-.39s.02-.24.06-.35c.04-.1.11-.19.2-.26.09-.07.22-.11.38-.13.14-.02.26 0 .35.03.1.04.17.1.24.18.06.08.11.18.14.31.03.12.06.26.08.42v.12l-.93.12.02.16Zm.39-.73a.375.375 0 0 0-.05-.14c-.02-.04-.05-.07-.08-.08-.03-.02-.08-.02-.12-.02-.05 0-.09.02-.12.05-.03.03-.05.06-.06.1-.01.04-.02.09-.02.13V59.14l.5-.06c-.01-.08-.02-.14-.04-.2ZM152.34 58.13l.05.27a.79.79 0 0 1 .13-.26c.06-.07.14-.11.24-.13h.08l.09.49h-.07c-.02 0-.05 0-.07.01-.04 0-.08.02-.12.04-.04.02-.07.05-.1.08s-.05.08-.06.13c-.01.05-.01.11 0 .17l.21 1.2-.47.08-.35-1.99.45-.08ZM153.66 59.33c.02.09.06.15.11.19.05.04.12.05.2.04.07-.02.13-.05.16-.1s.04-.11.02-.19c-.01-.06-.04-.11-.08-.13-.04-.03-.09-.04-.14-.05l-.36-.05a.7.7 0 0 1-.34-.14.533.533 0 0 1-.18-.32c-.02-.08-.02-.16-.02-.24 0-.08.03-.15.08-.22.04-.07.1-.13.18-.18.08-.05.18-.09.3-.12.21-.05.38-.04.51.04s.21.2.25.38l.02.08-.42.1c-.02-.1-.06-.17-.1-.21s-.1-.05-.18-.03c-.06.01-.11.04-.14.09-.04.05-.05.1-.03.17.01.05.04.09.07.12.04.03.1.05.18.06l.31.04c.16.02.28.07.36.14.08.07.14.18.17.33.02.11.03.2.01.28a.554.554 0 0 1-.29.38c-.08.04-.17.07-.27.1-.13.03-.24.04-.34.04-.09 0-.17-.03-.24-.07a.498.498 0 0 1-.15-.17.923.923 0 0 1-.09-.25l-.02-.07.42-.1.02.07ZM154.78 56.85l.12.43-.46.13-.12-.43.46-.13Zm.18.67.54 1.95-.46.13-.54-1.95.46-.13ZM155.67 56.7l.18.55.27-.08.11.34-.27.08.33 1.04c.02.08.05.13.08.15.03.03.08.03.15 0 .02 0 .04-.01.05-.02.02 0 .03-.01.05-.02l.11.34c-.05.02-.1.03-.15.05s-.1.04-.15.05c-.09.03-.16.04-.22.05s-.11 0-.16-.04a.403.403 0 0 1-.11-.14c-.03-.06-.06-.14-.09-.24l-.35-1.1-.23.07-.11-.34.23-.07-.18-.55.46-.15ZM157.17 59.23c.08-.03.13-.08.15-.14.02-.06.02-.13 0-.21l-1.2-1.71.47-.18.75 1.21-.26-1.4.45-.17.24 1.93c.02.17.03.31.03.42 0 .11-.01.2-.04.27s-.08.13-.14.17-.15.08-.25.12l-.18.07-.14-.36.12-.03ZM158.46 56.62l-.15-.32.22-.1-.1-.21a.786.786 0 0 1-.07-.22c0-.07 0-.13.03-.18.02-.05.06-.1.11-.14.05-.04.11-.08.18-.11.08-.04.16-.07.24-.1l.16.33s-.03 0-.05.02l-.04.02c-.06.03-.1.06-.11.09-.01.03 0 .08.02.13l.08.16.25-.12.15.32-.25.12.71 1.51-.44.21-.71-1.51-.22.1ZM159.58 56.31a.924.924 0 0 1-.05-.35c0-.11.04-.2.11-.29.06-.09.15-.16.27-.23.13-.07.24-.11.35-.12.1 0 .2.02.3.07.09.05.18.13.26.24.08.11.17.24.25.39.08.15.14.29.18.42.04.13.06.25.05.35 0 .11-.05.2-.11.28-.06.08-.16.16-.28.22a.93.93 0 0 1-.34.12c-.1 0-.2-.01-.29-.07s-.18-.13-.26-.24c-.08-.11-.17-.24-.25-.39-.08-.15-.14-.29-.18-.42Zm.75.44c.05.08.09.14.14.18s.09.08.14.09.1 0 .15-.02c.09-.05.12-.13.1-.24-.02-.11-.09-.28-.21-.51-.12-.22-.22-.37-.31-.45s-.17-.1-.26-.05c-.05.03-.08.07-.1.11s-.01.1 0 .17c.01.06.04.13.08.21l.13.26c.05.09.1.17.14.25ZM161.17 54.79l.14.23c0-.11 0-.21.03-.3s.09-.16.17-.21c.01 0 .02-.01.04-.02.01 0 .03-.01.04-.02l.26.42s-.05.02-.07.03c-.02.01-.04.02-.07.04-.04.02-.07.05-.1.08s-.05.07-.07.11c-.01.04-.02.09-.01.14 0 .05.03.1.06.16l.63 1.04-.41.25-1.05-1.73.39-.24ZM162.45 53.14l.61.83.47-.35-.61-.83.4-.3 1.6 2.16-.4.3-.71-.96-.47.35.71.96-.4.3-1.6-2.16.4-.3ZM165.06 53.54s.08.09.12.13c.04.04.09.07.13.09.04.02.08.03.12.03.04 0 .08-.01.11-.04.06-.05.09-.12.07-.19a.646.646 0 0 0-.13-.27l.33-.28c.15.19.22.36.21.52 0 .16-.09.32-.27.47-.13.11-.26.18-.37.19s-.22 0-.33-.05c-.1-.05-.2-.12-.29-.21-.09-.09-.18-.18-.26-.28-.09-.1-.17-.21-.23-.32-.07-.11-.11-.21-.14-.32a.578.578 0 0 1 .02-.32c.04-.11.12-.21.24-.32.11-.09.21-.15.31-.17.1-.02.2-.01.3.02.1.03.19.09.29.18.1.08.19.19.3.3l.08.09-.73.62.1.12Zm-.07-.83s-.09-.07-.13-.09c-.04-.02-.08-.03-.12-.02-.04 0-.08.02-.11.05s-.06.07-.07.11v.12c.01.04.03.08.05.12.02.04.05.08.08.12l.05.06.38-.32c-.05-.06-.1-.11-.14-.15ZM165.51 52.25c-.08-.08-.14-.17-.17-.25s-.04-.16-.03-.24c0-.08.04-.15.08-.22s.1-.14.16-.2c.1-.1.2-.17.28-.21.08-.04.16-.06.24-.05.07 0 .14.03.21.07.07.04.13.1.19.16l.74.77c.07.07.12.12.16.15.04.03.09.06.15.09l-.33.32s-.07-.03-.1-.05l-.09-.06c.03.12.03.21 0 .29-.03.07-.09.15-.17.23a.34.34 0 0 1-.19.11c-.06.02-.13.02-.19 0s-.12-.04-.18-.08a1.01 1.01 0 0 1-.16-.13.654.654 0 0 1-.21-.39c0-.06 0-.13.02-.19s.05-.14.1-.21l.14-.25c.04-.06.06-.12.05-.16 0-.04-.03-.09-.08-.14-.05-.06-.11-.09-.16-.1s-.11.02-.17.07c-.05.05-.08.11-.07.17 0 .06.04.12.09.18l.04.04-.31.3-.03-.04Zm.91-.17s-.03.07-.05.1c-.05.08-.08.16-.07.23 0 .07.04.13.1.2.05.06.11.09.17.11.06.02.11 0 .16-.04.02-.02.04-.05.06-.08.02-.03.03-.07.03-.11 0-.04 0-.08-.02-.12s-.04-.08-.08-.12l-.28-.29s-.01.08-.03.12ZM166.16 49.86l1.95 1.85-.33.35-1.95-1.85.33-.35ZM166.82 49.24l.43.38.18-.21.27.23-.18.21.82.72c.06.05.11.08.15.09.04 0 .08-.02.13-.07.01-.01.02-.03.04-.04.01-.01.02-.03.03-.04l.27.24s-.07.08-.1.12c-.03.04-.06.08-.1.12-.06.07-.12.12-.17.16-.05.04-.1.05-.15.05s-.11-.02-.17-.06c-.06-.04-.13-.09-.2-.16l-.87-.77-.16.18-.27-.23.16-.18-.44-.38.32-.36ZM167.31 48.53l.68.54c-.08-.19-.05-.36.08-.53.1-.12.2-.19.33-.19.12 0 .26.05.42.18l1.18.93-.3.38-1.09-.87c-.08-.07-.15-.1-.2-.1-.05 0-.1.03-.15.09-.11.13-.07.27.1.41l1.05.83-.3.38-2.11-1.67.3-.38ZM170.35 47.64c.05.03.1.06.15.08s.09.03.14.03c.04 0 .09-.02.13-.04.04-.03.08-.07.11-.12.04-.06.06-.14.04-.22-.01-.08-.07-.15-.16-.21-.05-.03-.1-.05-.14-.07a.33.33 0 0 0-.14 0 .64.64 0 0 0-.16.06c-.06.03-.12.08-.19.13-.09.07-.18.13-.27.17-.08.04-.17.07-.25.08-.08.01-.17 0-.25-.02a1.09 1.09 0 0 1-.27-.13c-.22-.14-.35-.31-.39-.49-.04-.19.01-.38.14-.58.06-.09.13-.17.2-.24.07-.07.15-.11.24-.14s.18-.03.28-.01c.1.02.2.06.31.13l.06.04-.26.41a.67.67 0 0 0-.28-.11c-.08 0-.15.04-.2.12-.03.05-.05.09-.05.13 0 .04 0 .08.01.11s.03.06.06.09.06.05.09.07c.07.04.14.07.2.07.07 0 .15-.03.24-.09l.36-.23c.09-.06.17-.1.25-.12.07-.02.14-.04.21-.04.07 0 .13.01.2.04s.13.06.2.1c.24.15.37.33.4.53.03.2-.03.41-.18.64-.15.24-.32.37-.5.41-.18.03-.37-.02-.58-.15l-.09-.06.27-.42.07.04ZM170.94 45.32s-.09-.03-.13-.04c-.04 0-.08 0-.11.01s-.06.04-.09.08c-.03.05-.04.1-.03.15 0 .05.03.09.07.14s.1.09.17.14c.07.05.16.1.26.16.11.06.21.11.29.15.08.04.15.06.21.07.06.01.11 0 .15 0a.24.24 0 0 0 .1-.1.18.18 0 0 0-.01-.21c-.05-.07-.14-.14-.29-.22l.22-.4c.23.13.38.28.45.44.07.16.04.36-.08.58-.06.11-.12.19-.19.25a.47.47 0 0 1-.26.11c-.1.01-.22 0-.35-.04-.13-.04-.29-.11-.47-.21-.18-.1-.32-.2-.43-.3s-.17-.2-.21-.3-.05-.2-.03-.29c.02-.1.05-.19.11-.29.11-.2.25-.31.43-.34.18-.03.37.01.58.13l-.22.4s-.09-.05-.13-.06ZM170.35 43.67l.4.2-.21.43-.4-.2.21-.43Zm.62.31 1.81.9-.21.43-1.81-.9.21-.43ZM172.43 43.82c.06.02.11.04.17.06.05.02.11.02.15.02s.09 0 .13-.03c.04-.02.06-.05.08-.09.03-.07.03-.14-.01-.2a.793.793 0 0 0-.23-.19l.17-.4c.21.1.35.23.42.38s.06.33-.03.54c-.07.16-.15.27-.25.34s-.2.1-.31.1c-.11 0-.23-.02-.35-.06-.12-.04-.24-.09-.36-.14-.12-.05-.24-.11-.35-.18a.842.842 0 0 1-.26-.23.563.563 0 0 1-.12-.3c-.01-.11.01-.24.08-.39.06-.13.12-.22.2-.29.08-.06.17-.1.27-.11.1-.01.22 0 .34.03.12.03.26.08.4.14l.11.05-.38.87.15.06Zm-.43-.71c-.06-.02-.11-.03-.15-.03s-.08 0-.12.03-.06.05-.08.1-.02.09-.02.12.03.07.06.11.06.06.1.09.08.05.13.07l.07.03.2-.45c-.07-.03-.14-.05-.19-.07ZM171.89 41.83l.22.08a.586.586 0 0 1-.14-.27.59.59 0 0 1 .03-.29c.05-.14.14-.24.25-.29.11-.05.27-.04.46.03l1.41.51-.16.45-1.31-.48c-.1-.04-.17-.05-.22-.03-.05.02-.09.06-.11.13-.06.16.02.28.23.35l1.26.46-.16.45-1.9-.69.16-.43ZM173.11 39.98h-.13a.21.21 0 0 0-.11.04c-.03.02-.05.05-.07.1-.02.06-.02.11 0 .15.02.04.05.08.1.12s.11.07.19.1.18.06.29.1c.12.04.22.06.31.08.09.02.16.03.22.02.06 0 .11-.01.14-.04.03-.02.06-.06.07-.11.02-.08 0-.15-.06-.2-.06-.06-.17-.11-.33-.16l.13-.44c.25.07.43.18.54.33.1.15.12.34.05.59-.03.12-.08.21-.13.29-.06.08-.13.13-.23.17-.09.03-.21.05-.35.04-.14 0-.31-.04-.5-.1-.2-.06-.36-.12-.48-.2a.922.922 0 0 1-.27-.24.593.593 0 0 1-.1-.28c0-.1 0-.2.04-.31.06-.21.18-.36.34-.43.17-.07.37-.07.6 0l-.13.44s-.1-.03-.14-.03ZM174.05 39.05c.06.01.12.02.17.03h.16c.05 0 .09-.02.12-.05s.05-.06.06-.1c.02-.08 0-.14-.05-.19a.686.686 0 0 0-.26-.14l.1-.42c.23.06.39.16.49.29.1.13.12.31.07.53-.04.17-.1.3-.18.38s-.18.13-.29.16c-.11.02-.23.02-.36 0s-.25-.04-.38-.07c-.13-.03-.26-.07-.38-.11a.753.753 0 0 1-.3-.18c-.08-.07-.14-.16-.18-.27s-.03-.24 0-.4c.03-.14.08-.24.15-.32.07-.08.15-.13.25-.16s.21-.04.34-.03c.13.01.27.03.42.07l.11.03-.21.93.16.04Zm-.56-.62h-.15a.16.16 0 0 0-.11.05c-.03.03-.05.06-.06.11-.01.05 0 .09 0 .13.02.04.04.07.08.09.03.03.07.05.12.07.04.02.09.03.14.04l.08.02.11-.48c-.08-.01-.14-.03-.2-.03ZM174.54 37.53c.09.01.16 0 .22-.03s.1-.09.11-.17c.01-.07 0-.14-.03-.19-.03-.05-.09-.08-.17-.1-.06-.01-.12 0-.16.03-.04.03-.07.06-.1.11l-.19.31c-.07.12-.16.21-.26.26-.1.05-.22.07-.36.04a.631.631 0 0 1-.23-.08.498.498 0 0 1-.17-.15.43.43 0 0 1-.09-.23.857.857 0 0 1 0-.32c.04-.22.11-.37.23-.45.12-.09.26-.12.45-.09h.08l-.07.44a.636.636 0 0 0-.24 0c-.05.02-.09.07-.1.15 0 .06 0 .11.03.17.03.05.08.08.15.09.05 0 .1 0 .14-.02.04-.02.09-.07.13-.15l.15-.27c.08-.14.17-.23.27-.28.1-.05.22-.06.37-.03a.581.581 0 0 1 .52.52c0 .09 0 .18-.01.28-.02.13-.05.24-.1.33a.43.43 0 0 1-.16.19c-.06.04-.14.07-.22.08-.08 0-.17 0-.27-.01h-.07l.07-.44h.07ZM137.76 51.11l-1.04-.59a1.12 1.12 0 0 1 .37-.35c.08-.04.17-.08.27-.1.1-.03.22-.06.36-.08.08-.01.15-.03.2-.06.05-.03.09-.06.11-.11.01-.02.02-.05.03-.08v-.07c0-.02-.01-.05-.03-.07-.01-.02-.04-.04-.06-.06-.11-.06-.22-.03-.33.11l-.28-.23c.05-.06.11-.12.17-.16.06-.04.13-.07.2-.09s.14-.02.21 0c.07.01.14.03.21.07.07.04.12.09.17.14.04.05.07.12.09.18.02.07.02.13 0 .21-.01.07-.04.15-.08.22-.1.18-.3.3-.59.34-.1.01-.19.03-.26.05-.07.02-.13.04-.18.06v.02l.61.35-.17.3ZM139.65 51.03c-.06.13-.13.24-.2.33-.08.09-.15.16-.24.21s-.17.08-.26.09c-.09 0-.18 0-.26-.05-.09-.04-.16-.1-.21-.18s-.08-.17-.09-.27c-.01-.1 0-.21.02-.32.02-.11.06-.23.11-.34.06-.13.13-.24.2-.33.08-.09.16-.16.24-.21.08-.05.17-.08.26-.09.09 0 .18 0 .26.05.08.04.15.09.2.17.05.07.08.16.1.25.02.1.01.2 0 .32s-.06.24-.12.37Zm-.35-.16c.16-.35.17-.56.03-.62-.15-.07-.3.07-.47.42-.16.35-.17.56-.02.63.14.07.3-.07.46-.42ZM141.12 51.6c-.05.13-.11.25-.18.34s-.14.17-.22.23a.508.508 0 0 1-.51.08.524.524 0 0 1-.22-.16.682.682 0 0 1-.11-.26.86.86 0 0 1 0-.32c.01-.12.04-.23.09-.35.05-.13.11-.25.18-.34s.14-.17.22-.23.16-.09.25-.11c.09-.01.18 0 .27.03a.545.545 0 0 1 .33.39c.02.1.03.2.02.32-.01.12-.04.24-.09.38Zm-.35-.13c.14-.36.13-.57-.02-.62-.15-.06-.3.09-.43.45-.14.36-.13.57.03.63.15.06.29-.1.43-.46ZM142.53 52.31a.83.83 0 0 1-.12.25.568.568 0 0 1-.4.23c-.08 0-.16 0-.25-.03a.556.556 0 0 1-.17-.09.673.673 0 0 1-.14-.15c-.04-.06-.07-.13-.08-.2s-.02-.16 0-.25l.34.06v.1c0 .03.01.06.03.09s.03.05.06.07.05.04.08.04c.07.02.13.01.19-.02s.1-.1.13-.19c.01-.04.02-.08.02-.12 0-.04 0-.07-.02-.1a.218.218 0 0 0-.05-.08.218.218 0 0 0-.08-.05c-.1-.03-.2 0-.29.07l-.27-.11.43-.91.87.25-.1.34-.61-.18h-.01s-.02.04-.02.05c0 .01-.01.02-.02.04 0 .02-.02.03-.03.05l-.04.08v.02h.12c.04 0 .07 0 .11.02.07.02.14.06.19.11.05.05.1.11.13.17s.05.14.05.22c0 .08 0 .16-.03.24ZM157.76 48.69c.26.47.59.92 1.04 1.24.01.16.03.32.04.48-.48-.23-.85-.63-1.09-1.1-.13.08-.25.16-.38.24-.06-.16-.11-.32-.17-.49.2-.1.39-.23.57-.37ZM156.2 49.54c.2-.1.4-.21.59-.31l.12.48c-.11.06-.23.12-.34.18.34.41.63.91.47 1.46-.24-.44-.46-.9-.82-1.26l-.03-.55ZM155.39 49.95c.05.12.09.24.13.36-.06.11-.11.23-.16.34.14.05.28.1.41.16-.05.24-.12.47-.17.7.19-.06.37-.14.55-.21l-.09.56c-.23.09-.46.19-.7.26-.2-.29 0-.62.06-.92-.14-.07-.28-.14-.41-.21.04-.37.21-.71.38-1.04ZM153.8 50.54c.42.54.79 1.25.53 1.94-.17-.52-.37-1.03-.71-1.46l.18-.48ZM165.66 41.95c-.6-5.71-3.7-10.75-8.39-13.75v-.52c0-6.33-3.08-12.16-8.24-15.59l-1.26-.84-1.26.84c-5.16 3.44-8.24 9.26-8.24 15.59v.52c-4.69 3-7.79 8.04-8.39 13.75l-.16 1.52 1.35.72c2.52 1.33 5.35 2.03 8.2 2.03s5.89-.75 8.49-2.19c2.6 1.44 5.51 2.19 8.49 2.19s5.68-.7 8.2-2.03l1.35-.72-.16-1.52Zm-1.78 1.14c-2.34 1.24-4.97 1.89-7.61 1.89s-5.48-.7-7.88-2.04l-.6-.33-.6.33c-2.41 1.33-5.14 2.04-7.88 2.04s-5.28-.65-7.61-1.89l-.61-.32.07-.69c.56-5.33 3.41-10.01 7.82-12.83l.59-.38-.02-.7v-.49c0-5.91 2.87-11.35 7.68-14.56l.57-.38.57.38c4.81 3.2 7.69 8.65 7.69 14.56v.49l-.02.7.59.38c4.41 2.82 7.26 7.5 7.82 12.83l.07.69-.61.32Z"/><path class="cls-1" d="M146.83 17.39c.07.11.07.2.02.32 0-.05.02-.09-.02-.11-.02 0-.02.02-.02.05 0-.05-.02-.07-.05-.09-.05.14-.05.25-.05.39-.05-.02 0-.11-.05-.09-.07.02-.02.14 0 .2-.16-.3-.18-.66-.05-.98.09-.18.25-.34.41-.5.02-.02.07-.09 0-.09-.07-.02-.11.05-.14.11l-.05-.05c-.02.07-.07.14-.09.2 0-.02 0-.09-.02-.09-.07.02-.07.14-.09.2 0-.02 0-.09-.02-.07-.07.04-.07.16-.09.25 0-.02.02-.09-.02-.09-.07.02-.05.11-.05.18 0-.02-.02-.05-.02-.05-.07.07-.05.16-.05.23-.05-.02-.02-.09-.05-.09-.07.07-.05.16-.07.25-.02-.05.02-.11-.02-.16-.04.07-.04.14-.07.2-.02-.07.02-.14-.02-.18-.05.07 0 .16-.02.23-.05-.2-.05-.41.02-.59.05-.09.09-.18.16-.27.07-.09.16-.16.25-.23.14-.11.32-.14.43-.27-.05-.05-.11.02-.16-.02l-.04.05s0-.05-.02-.05c-.05 0-.07.02-.09.05 0-.02 0-.05-.02-.05-.05 0-.07.05-.09.07 0-.02-.02-.04-.02-.04-.02.02-.09.02-.09.09l-.05-.05s-.05.05-.05.09c0-.02 0-.04-.02-.04-.02.02-.05.04-.05.09l-.02-.02s-.05.09-.05.14c0-.02-.02-.04-.02-.04-.05.04-.02.11-.05.16-.05-.27.07-.52.32-.59.25-.09.52-.16.79-.02 0 0 .02-.02.02-.05-.02-.07-.09-.2-.18-.11 0-.02 0-.04.02-.07-.05-.07-.11.02-.16 0l.02-.02c-.05-.07-.09.02-.14 0l.02-.02s-.02-.02-.05-.02c-.02.02-.09.02-.09.09 0-.02.02-.09-.02-.09-.07.02-.09.11-.14.16-.02-.09 0-.18.09-.23.2-.14.41-.16.63-.09.14.05.2.16.27.27.04-.09.07-.18.09-.29 0 .02 0 .04.02.07.05-.09.02-.2.07-.29.05.09.02.2.07.29.02-.02.02-.05.02-.07.02.11.05.2.09.29.07-.16.2-.25.36-.29.25-.05.66.02.64.34-.05-.05-.07-.14-.14-.16-.05 0-.02.07-.02.09 0-.07-.07-.07-.09-.09-.02-.02-.05 0-.05.02s.02.02.02.05c-.05-.02-.09-.07-.14-.02.02 0 .02.02.02.05-.05-.02-.09-.05-.14-.05-.05.02.02.07 0 .09-.02-.04-.07-.02-.09-.02-.05.05-.14.18-.11.18.27-.11.59-.07.84.02.09.02.2.11.27.2.05.11.07.25.05.39-.05-.05 0-.11-.05-.16 0 0-.02.02-.02.04 0-.09-.07-.14-.11-.2-.02 0-.02.02-.02.04 0-.04-.02-.07-.05-.09l-.05.05c0-.07-.07-.07-.09-.09 0 0-.02.02-.02.04-.02-.02-.05-.04-.07-.07-.05 0-.07.05-.11 0-.02-.02-.05 0-.05.05l-.05-.05s-.11-.02-.16.02c.2.18.5.25.68.5.18.27.27.57.18.86-.02-.07.02-.16-.02-.23-.05.05 0 .11-.02.18-.02-.07-.02-.14-.07-.2-.05.05-.02.11-.02.16-.02-.09 0-.18-.07-.25-.02 0 0 .07-.05.09 0-.07.02-.16-.04-.23 0 0-.02.02-.02.05 0-.07.02-.16-.05-.18-.05 0-.02.07-.02.09-.02-.09-.02-.2-.09-.25-.02-.02-.02.04-.02.07-.02-.07-.02-.18-.09-.2-.02 0-.02.07-.02.09-.02-.07-.07-.14-.09-.2l-.05.05c-.02-.07-.07-.11-.14-.14-.02 0-.02.04-.02.07.14.18.32.32.43.5.16.32.11.7-.05 1.02.02-.07.07-.18 0-.2-.05-.02 0 .07-.05.09 0-.14 0-.25-.05-.39-.02.02-.05.05-.05.09 0-.02 0-.05-.02-.05-.05.02-.02.07-.02.11-.05-.11 0-.25.05-.36 0-.05-.02-.09-.05-.14-.02.02-.05.05-.05.09-.02-.09 0-.2-.05-.29-.05.02-.02.07-.02.09-.05-.07.02-.16-.05-.2-.02 0 0 .07-.05.09 0-.07.02-.16-.05-.2-.02 0-.02.07-.02.09 0-.07-.02-.18-.09-.2-.02 0 0 .07-.02.09h-.05s0-.04-.02-.04-.05 0-.05.02c.02.07.11.07.14.14 0 .07.07.09.07.16-.02-.05-.09-.07-.14-.02.11.05.23.11.2.25 0-.05-.05-.09-.09-.11-.02 0-.07 0-.07.02.09.09.18.18.16.32 0-.05-.02-.09-.07-.11-.02 0-.05.02-.05.02.07.14.14.27.09.43 0-.05.02-.11-.02-.09-.05 0-.02.07-.02.11l-.02-.02c-.04.07.02.11 0 .18-.02.07-.02.11-.04.18-.02-.07.02-.16-.02-.23-.05.09-.05.2-.05.32 0-.02 0-.05-.02-.05-.05.02 0 .09-.05.11.02-.16-.05-.32-.05-.48.02 0 .05 0 .05-.02 0-.05.02-.14-.02-.14-.04-.02 0 .09-.04.11 0-.09 0-.18-.07-.2-.05-.02.02.07-.05.09-.09.02-.05-.07-.09-.11-.07.91-.04 1.39 0 2.3 0 .11.07.23.05.34-.02.05-.05.11-.02.16 0 .07.02.14.07.2.02.09-.07.18-.05.27.07.16.14.32.25.48h-.91c.09-.18.25-.34.23-.54 0-.07-.04-.14-.02-.2.11-.18.02-.34.05-.54.02-.05.04-.09.04-.14.05-.93.05-1.39 0-2.32-.04.02-.02.07-.02.09-.02.05-.09.02-.11-.02.02 0 .02-.02.02-.04-.05-.07-.05.02-.07.02-.02.05-.05.11-.02.18-.05-.02 0-.14-.05-.11-.05 0-.02.09-.02.14 0 .02.02.02.05.02 0 .16-.07.32-.05.48-.05-.02 0-.09-.05-.11-.02 0-.02.02-.02.05 0-.11 0-.23-.05-.32-.05.07 0 .16-.02.23-.02-.07-.02-.11-.05-.18-.02-.07.05-.11 0-.18l-.02.02s.02-.11-.02-.11c-.04-.02-.02.05-.02.09-.02-.14-.02-.29.09-.41.02-.02 0-.05-.02-.05-.07 0-.07.07-.09.11-.02-.14.07-.23.16-.32 0-.02-.05-.02-.07-.02-.05.02-.09.07-.09.11-.02-.14.09-.2.2-.25-.05-.05-.11-.02-.14.02.04-.09.09-.16.18-.23-.02-.02-.05-.05-.09-.05.05-.02 0-.07.05-.09 0-.02-.02-.02-.05-.02-.07.05-.11.14-.11.23 0-.02 0-.09-.02-.09-.07.05-.05.14-.05.2-.04-.02 0-.09-.04-.09-.07.05 0 .14-.05.2 0-.02.02-.07-.02-.09-.05.09-.02.2-.05.29 0-.04-.02-.07-.05-.09-.02.07-.07.11-.02.18ZM147.23 21.46h1.1v.19h-1.1zM147.59 21.73h.38v.17h-.38zM149.82 23.9c-.11 0-.2.08-.23.18 0 .02-.02.03-.03.03a.745.745 0 0 1-.7-.31c-.03-.04-.03-.09-.02-.14.03-.07.07-.14.12-.2l.31-.38s-.25.2-.42.33c-.08.06-.2.05-.27-.03-2.85-3.41-5.63-2.18-5.63-2.18 2.79-.48 4.76 1.59 5.37 2.34.06.08.09.18.05.27a.72.72 0 0 1-.12.21l-.31.38.38-.31s.1-.07.16-.1c.07-.03.14 0 .19.04.25.27.45.4.8.43.27.02.47-.13.47-.13a.24.24 0 0 0 .12-.2c0-.13-.11-.24-.24-.24Z"/><path class="cls-1" d="M145.75 23.9c.11 0 .2.08.23.18 0 .02.02.03.03.03.27.03.54-.08.7-.31.03-.04.03-.09.02-.14a.817.817 0 0 0-.12-.2l-.31-.38s.25.2.42.33c.08.06.2.05.27-.03 2.85-3.41 5.63-2.18 5.63-2.18-2.79-.48-4.76 1.59-5.37 2.34-.06.08-.09.18-.05.27.03.08.07.15.12.21l.31.38-.38-.31s-.1-.07-.16-.1c-.07-.03-.14 0-.19.04-.25.27-.45.4-.8.43-.27.02-.47-.13-.47-.13a.24.24 0 0 1-.12-.2c0-.13.11-.24.24-.24ZM147.78 33.67h-.03c-.04-.01-.06-.05-.06-.09l-.12-4.39s0-.04.01-.05c0-.01.63-1.03 2-.4 1.12.51 1.6.19 1.61.19.03-.02.06-.02.09 0 .03.01.05.04.05.08l.46 4.49s-.03.09-.07.1c-.04 0-.91.21-2.05-.33-1.05-.5-1.79.35-1.83.39a.09.09 0 0 1-.07.03Zm1.25-.77c.22 0 .47.05.73.17.89.42 1.61.37 1.84.33l-.44-4.27c-.23.08-.76.17-1.66-.23-1.13-.51-1.66.17-1.75.31l.11 4.15c.21-.18.63-.46 1.16-.46Z"/><path class="cls-1" d="M152.31 34.33s-.06-.01-.07-.04l-.61-.75s-.02-.03-.02-.05l-.46-4.49s.03-.09.07-.1c.05-.01.09.01.11.06l.37.89v.02l.7 4.36s-.02.08-.05.1h-.04Zm-.51-.89.37.45-.64-4-.11-.28.39 3.82Z"/><path class="cls-1" d="M148.27 34.49s-.06-.02-.08-.05l-.49-.82.16-.1.4.68c.15-.21.49-.54 1.1-.33 1.25.42 2.92.27 2.93.26l.02.19c-.07 0-1.73.16-3.01-.27-.7-.24-.94.35-.95.37-.01.03-.04.06-.08.06Z"/><path class="cls-1" d="M147.71 33.63s-.78-.89-1.83-.39c-1.14.54-2.01.34-2.05.33-.05-.01-.08-.05-.07-.1l.46-4.49s.02-.06.05-.08c.03-.01.07-.01.09 0 0 0 .49.32 1.61-.19.49-.22.91-.26 1.25-.12.39.17.51.52.52.54l-.18.06s-.1-.29-.42-.43c-.28-.12-.65-.08-1.09.12-.9.41-1.43.32-1.66.23l-.44 4.27c.23.03.96.09 1.84-.33 1.18-.56 2.04.43 2.05.44l-.14.12Z"/><path class="cls-1" d="M143.25 34.33h-.04c-.04-.02-.06-.06-.05-.1l.7-4.36v-.02l.37-.89s.06-.07.11-.06c.05.01.08.05.07.1l-.46 4.49s0 .04-.02.05l-.61.75s-.05.04-.07.04Zm.8-4.43-.64 4 .37-.45.39-3.82-.11.28Z"/><path class="cls-1" d="M147.3 34.49c-.04 0-.07-.03-.08-.06-.01-.02-.26-.61-.95-.37-1.28.43-2.94.28-3.01.27l.02-.19s1.69.16 2.93-.26c.62-.21.96.12 1.1.33l.4-.68.16.1-.49.82s-.05.05-.08.05Z"/><path class="cls-1" d="M147.3 34.3h.97v.19h-.97zM140.83 36.48c.35 0 .63.28.63.62s-.28.62-.63.62-.63-.28-.63-.62.28-.62.63-.62m0-.19c-.45 0-.81.36-.81.81s.36.81.81.81.81-.36.81-.81-.36-.81-.81-.81Z"/><path class="cls-1" d="M140.69 36.6c.23 0 .41.18.41.41s-.18.41-.41.41-.41-.18-.41-.41.18-.41.41-.41m0-.19c-.33 0-.6.27-.6.6s.27.6.6.6.6-.27.6-.6-.27-.6-.6-.6ZM135.7 42.76h-.17c-1.53-.15-1.65-1.36-1.65-1.37 0-.01-.13-.69.32-1.35.4-.57 1.1-.94 2.09-1.1 2.6-.41 3.85-1.51 3.86-1.52l.19.21c-.05.05-1.33 1.17-4.01 1.59-.91.15-1.55.47-1.9.98-.39.56-.28 1.14-.27 1.14 0 .06.11 1 1.4 1.13.6.06 1.05-.28 1.33-.58.57-.61.83-1.48.75-1.97l.28-.05c.11.64-.24 1.59-.82 2.21-.41.44-.9.67-1.4.67Z"/><circle class="cls-1" cx="140.68" cy="36.97" r=".22"/><path class="cls-1" d="m137.44 37.95-.18-.05c.26-.99.59-1.76 1.1-2.59.13-.21.28-.32.44-.32.25 0 .42.3.42.31l-.17.09c-.03-.06-.14-.21-.26-.21-.11 0-.21.12-.27.23-.5.81-.82 1.57-1.08 2.54Z"/><ellipse class="cls-1" cx="139.43" cy="35.64" rx=".27" ry=".3" transform="rotate(-56.73 139.433 35.645)"/><ellipse class="cls-1" cx="139.24" cy="35.46" rx=".23" ry=".26" transform="rotate(-56.73 139.246 35.46)"/><path class="cls-1" d="M138.78 38.1h-.19c0-2.4-.35-2.81-.51-2.88-.11-.05-.2.05-.2.05l-.13-.14s.19-.18.41-.09c.42.18.63 1.21.62 3.05Z"/><ellipse class="cls-1" cx="137.65" cy="35.33" rx=".28" ry=".16" transform="rotate(-42.65 137.661 35.32)"/><ellipse class="cls-1" cx="137.44" cy="35.57" rx=".26" ry=".23" transform="rotate(-53.56 137.436 35.578)"/><path class="cls-1" d="M155.61 35.68c-.12-.04-.23-.06-.35-.09l-1.59 1.62c.05.1.1.19.17.28l1.78-1.82Z"/><path class="cls-1" d="m153.83 37.53-.02-.02c-.06-.08-.11-.18-.17-.28v-.03l1.6-1.63h.01c.13.03.25.06.36.09h.04l-1.82 1.88Zm-.13-.31c.05.09.09.17.14.24l1.73-1.77c-.09-.03-.19-.05-.3-.07l-1.57 1.6ZM154.4 38.08c.09.06.18.12.27.16l1.91-1.96c-.06-.08-.14-.15-.23-.22l-1.96 2.01Z"/><path class="cls-1" d="M154.67 38.27h-.02l-.27-.17-.02-.02v-.02l1.99-2.02h.02c.09.09.17.16.23.24v.04l-1.93 1.97Zm-.24-.2c.07.05.14.09.23.14l1.89-1.93c-.05-.06-.12-.13-.19-.19l-1.93 1.97ZM155.9 38.57l1.06-1.09c0-.14-.02-.28-.04-.41l-1.42 1.45c.13.02.26.04.4.04Z"/><path class="cls-1" d="M155.91 38.59h-.01c-.15-.01-.28-.03-.4-.05h-.04l1.48-1.52v.05c.03.13.04.27.05.41s0 .02 0 .02l-1.07 1.09Zm-.36-.08c.1.02.21.03.34.04l1.05-1.07c0-.12-.01-.24-.03-.35l-1.36 1.39ZM157.21 40.41l1.68-1.72c-.16.01-.33.04-.5.06l-1.22 1.24c0 .15.02.28.04.41Z"/><path class="cls-1" d="M157.19 40.46v-.05c-.03-.13-.04-.27-.04-.42v-.02l1.22-1.25c.19-.03.35-.05.5-.06h.06l-1.76 1.79Zm0-.45c0 .12.01.24.03.35l1.6-1.64c-.13.01-.27.03-.43.05l-1.2 1.23ZM157.67 41.5l2.59-2.64c-.11-.05-.22-.09-.33-.11l-2.44 2.5c.06.1.12.18.19.26Z"/><path class="cls-1" d="m157.67 41.54-.02-.02c-.07-.08-.13-.17-.19-.26v-.03l2.45-2.51h.01c.12.03.23.07.33.12h.03l-.02.04-2.6 2.66Zm-.16-.29c.05.08.1.15.16.22l2.55-2.6c-.09-.04-.18-.07-.28-.09l-2.42 2.48ZM160.86 39.33l-2.56 2.62c.11.05.22.08.33.11l2.42-2.48s-.01-.01-.01-.02c-.05-.09-.11-.17-.17-.24Z"/><path class="cls-1" d="M158.64 42.09h-.01c-.12-.03-.23-.07-.33-.12h-.03l.02-.04 2.58-2.64.02.02c.07.08.12.16.18.24v.04l-2.43 2.49Zm-.3-.14c.09.04.18.07.28.09l2.4-2.45c-.05-.07-.1-.15-.15-.22l-2.52 2.58Z"/><path class="cls-1" d="M155.91 35.38c-.09-.06-.18-.12-.27-.17-.16-.1-.32-.17-.45-.23-.2-.09-.42.05-.43.26 0 .16.11.3.27.32.08 0 .15.02.23.04.12.02.24.05.35.09.18.06.36.13.52.23.08.05.15.1.22.16.09.07.16.14.23.22.19.23.29.5.34.79.02.13.04.27.04.41 0 .35-.03.71-.07 1.06v.07l-.03.35c-.05.47-.08.93-.02 1.38.02.12.05.24.08.37.06.19.14.38.26.56.04.06.08.11.12.17.06.08.13.17.2.25.16.19.35.37.55.53.08.07.17.13.26.19.25.16.51.3.78.4.23.08.46-.11.43-.36a.318.318 0 0 0-.28-.27c-.18-.02-.39-.05-.6-.1-.11-.03-.22-.07-.33-.11a1.706 1.706 0 0 1-.82-.71 2.25 2.25 0 0 1-.28-.83c-.02-.13-.03-.26-.04-.41-.01-.31.01-.67.07-1.07 0-.03 0-.06.01-.09.02-.11.03-.23.04-.33.05-.48.01-.91-.08-1.28-.03-.12-.07-.23-.11-.34-.1-.28-.24-.52-.4-.73-.06-.09-.13-.17-.2-.25-.19-.21-.4-.39-.6-.53Z"/><path class="cls-1" d="M159.19 42.84s-.08 0-.12-.02c-.26-.1-.52-.23-.78-.4a4.282 4.282 0 0 1-1.02-.97v-.02s-.09-.1-.12-.15c-.11-.17-.2-.36-.26-.57-.04-.12-.06-.24-.08-.37-.07-.45-.03-.91.02-1.38v-.1c.02-.08.03-.16.03-.24l.02-.16c.03-.32.07-.66.06-.98 0-.14-.02-.28-.04-.41a1.545 1.545 0 0 0-.56-1c-.08-.06-.15-.11-.22-.15-.15-.09-.33-.17-.52-.23-.11-.03-.22-.06-.35-.09-.08-.01-.15-.03-.23-.04a.32.32 0 0 1-.29-.34c0-.11.06-.21.16-.26a.34.34 0 0 1 .31-.02c.16.07.31.15.45.23.1.06.19.11.27.17.23.16.43.34.6.53a3.124 3.124 0 0 1 .6.99c.04.11.08.23.11.34.1.39.12.82.08 1.28-.01.12-.02.23-.04.34v.09c-.06.39-.09.75-.08 1.07 0 .14.02.28.04.41.05.32.14.59.27.82.05.09.12.18.18.26.16.19.37.34.62.44a3.025 3.025 0 0 0 .92.21.34.34 0 0 1 .17.61.35.35 0 0 1-.22.08Zm-4.13-7.87c-.05 0-.1.01-.15.04-.08.05-.13.13-.13.23 0 .15.1.28.25.29.08 0 .15.02.23.04.13.03.25.05.36.09.19.06.37.14.53.23.07.04.14.09.22.16.09.07.17.15.23.22.18.22.29.48.35.8.02.13.04.27.04.41 0 .32-.03.66-.06.98l-.02.16c0 .08-.02.16-.02.24v.1c-.06.47-.09.93-.03 1.37.02.12.05.24.08.36.06.2.15.38.26.56.03.05.07.1.1.15v.02c.08.08.14.17.21.25.17.19.35.37.55.53.08.07.17.13.26.19.25.17.51.3.77.4.1.04.2.02.29-.05.08-.07.12-.17.11-.28a.297.297 0 0 0-.26-.25c-.15-.02-.37-.04-.6-.1a2.55 2.55 0 0 1-.33-.11c-.25-.11-.47-.26-.64-.46-.07-.08-.13-.17-.19-.26-.14-.23-.23-.52-.28-.84-.02-.13-.03-.27-.04-.42-.01-.32.01-.68.07-1.08v-.04s.01-.04.01-.05c.02-.1.03-.21.04-.33.04-.46.02-.88-.08-1.27-.03-.11-.06-.23-.11-.34-.1-.26-.23-.5-.39-.73-.06-.09-.13-.17-.2-.24-.17-.19-.37-.37-.6-.52-.08-.06-.17-.12-.27-.17a4.73 4.73 0 0 0-.45-.23c-.04-.02-.08-.02-.12-.02Z"/><path class="cls-1" d="M156.9 38.54c-.33.03-.67.05-1 .02a2.867 2.867 0 0 1-1.24-.32c-.09-.05-.18-.1-.27-.16-.21-.16-.4-.35-.55-.57-.06-.09-.12-.18-.17-.28-.08-.15-.14-.3-.18-.46a.225.225 0 0 0-.23-.16c-.16.02-.25.19-.17.33.11.18.23.35.36.51.07.08.14.16.21.23.19.19.39.36.61.52.09.06.18.12.27.17.24.14.5.26.76.36.11.04.22.08.34.11.24.06.48.11.73.13.15.01.31.01.48 0l.03-.35v-.07Z"/><path class="cls-1" d="M156.65 38.99c-.1 0-.19 0-.27-.01a4.66 4.66 0 0 1-.73-.13c-.1-.03-.21-.06-.34-.11-.27-.1-.53-.22-.77-.36-.1-.06-.19-.12-.27-.17-.22-.15-.42-.33-.61-.52a5.452 5.452 0 0 1-.58-.75c-.04-.07-.05-.16 0-.23.04-.08.11-.13.19-.13.12-.01.23.06.26.17.04.15.1.3.18.45.05.11.11.2.16.28.15.22.34.41.55.57.08.06.16.11.27.17a2.803 2.803 0 0 0 1.22.32c.29.02.62.01.99-.02h.03v.1c0 .08-.02.16-.02.24v.12h-.23Zm-3.37-2.37h-.02c-.07 0-.13.05-.16.11s-.03.13 0 .19c.1.17.22.34.36.5.07.08.14.16.21.23.19.19.39.36.61.51.08.06.17.11.27.17a4.82 4.82 0 0 0 1.09.47 3.375 3.375 0 0 0 1.18.13v-.08c.02-.08.02-.16.03-.24v-.05c-.36.03-.68.04-.97.02-.15 0-.28-.02-.4-.04a2.93 2.93 0 0 1-.85-.28 2.247 2.247 0 0 1-.83-.76c-.06-.08-.11-.18-.17-.28-.08-.16-.14-.31-.18-.46a.195.195 0 0 0-.19-.14ZM160.46 38.65c-.1-.05-.2-.1-.31-.14a2.52 2.52 0 0 0-.92-.18h-.45c-.19.01-.38.03-.58.05-.3.03-.61.08-.93.11-.01.11-.02.22-.04.33 0 .03 0 .06-.01.09.38-.04.76-.12 1.14-.17.17-.02.34-.05.5-.06.36-.03.72-.03 1.04.05.11.03.22.06.33.11.22.1.43.25.61.47.06.07.12.15.17.24a.576.576 0 0 0 .49.28h.02c.14 0 .21-.18.11-.28-.1-.1-.2-.2-.3-.29-.08-.07-.16-.14-.24-.2-.2-.16-.42-.31-.65-.42Z"/><path class="cls-1" d="M161.51 39.87c-.19 0-.37-.1-.48-.27l-.01-.01c-.05-.08-.11-.16-.17-.24-.17-.21-.37-.36-.6-.47-.1-.05-.21-.08-.33-.11-.29-.07-.62-.09-1.03-.05-.15.01-.31.03-.5.06-.14.02-.28.04-.42.07-.24.04-.49.08-.73.11h-.03l.01-.07v-.05c.02-.1.03-.21.04-.33v-.02h.02c.12-.01.24-.03.37-.05.2-.02.38-.05.56-.07.21-.02.39-.04.58-.05.16 0 .3-.01.45 0 .19 0 .36.03.53.06a2.917 2.917 0 0 1 .7.26c.22.11.44.26.66.43.08.07.16.13.24.21.11.1.21.2.3.29.05.05.07.13.04.2-.03.07-.09.12-.17.12h-.04Zm-2.22-1.22c.24 0 .45.02.64.07.12.03.23.07.33.11.24.11.44.27.62.48.07.08.12.16.18.24v.01c.1.15.27.25.44.25h.04c.06 0 .1-.04.13-.09a.14.14 0 0 0-.03-.15c-.09-.09-.19-.19-.3-.29-.08-.07-.16-.14-.24-.2-.21-.17-.43-.31-.65-.42-.1-.05-.2-.1-.31-.13-.15-.05-.27-.09-.38-.12a2.12 2.12 0 0 0-.52-.06h-.44c-.18.01-.36.03-.57.05-.18.02-.37.04-.56.07-.11.01-.23.03-.35.04-.01.12-.02.22-.04.32v.05c.23-.02.47-.06.7-.09.14-.02.28-.04.42-.07.19-.03.35-.05.5-.06.15-.01.28-.02.41-.02ZM137.87 40.04h-.1c-.53-.07-.91-.63-.83-1.26l.09-.7c.02-.16.16-.27.32-.25.16.02.27.16.25.32l-.09.7c-.04.32.11.6.33.63.13.02.23-.06.28-.11.1-.1.17-.25.19-.42l.09-.7c.02-.16.16-.27.32-.25.16.02.27.16.25.32l-.09.7c-.04.29-.16.56-.36.75-.18.18-.42.28-.65.28Z"/></g></svg>