<svg xmlns="http://www.w3.org/2000/svg" xmlns:xlink="http://www.w3.org/1999/xlink" id="Layer_1" data-name="Layer 1" viewBox="0 0 225.1 146.22"><defs><linearGradient id="linear-gradient-43" x1="342.24" y1="-149.45" x2="528.49" y2="-149.45" xlink:href="#linear-gradient"/><linearGradient id="linear-gradient-86" x1="514.63" y1="-185.21" x2="514.63" y2="-208.94" xlink:href="#linear-gradient-82"/><linearGradient id="linear-gradient-2" x1="342.24" y1="-180.35" x2="528.49" y2="-180.35" xlink:href="#linear-gradient"/><linearGradient id="linear-gradient-3" x1="342.24" y1="-179.17" x2="528.49" y2="-179.17" xlink:href="#linear-gradient"/><linearGradient id="linear-gradient-4" x1="342.24" y1="-178.72" x2="528.49" y2="-178.72" xlink:href="#linear-gradient"/><linearGradient id="linear-gradient-5" x1="342.24" y1="-176.45" x2="528.49" y2="-176.45" xlink:href="#linear-gradient"/><linearGradient id="linear-gradient-6" x1="342.24" y1="-176.47" x2="528.49" y2="-176.47" xlink:href="#linear-gradient"/><linearGradient id="linear-gradient-7" x1="342.24" y1="-176.13" x2="528.49" y2="-176.13" xlink:href="#linear-gradient"/><linearGradient id="linear-gradient-8" x1="342.24" y1="-175.55" x2="528.49" y2="-175.55" xlink:href="#linear-gradient"/><linearGradient id="linear-gradient-9" x1="342.24" y1="-174.45" x2="528.49" y2="-174.45" xlink:href="#linear-gradient"/><linearGradient id="linear-gradient-10" x1="342.24" y1="-173.34" x2="528.49" y2="-173.34" xlink:href="#linear-gradient"/><linearGradient id="linear-gradient-11" x1="342.24" y1="-172.14" x2="528.49" y2="-172.14" xlink:href="#linear-gradient"/><linearGradient id="linear-gradient-12" x1="342.24" y1="-171.63" x2="528.49" y2="-171.63" xlink:href="#linear-gradient"/><linearGradient id="linear-gradient-13" x1="342.24" y1="-170.78" x2="528.49" y2="-170.78" xlink:href="#linear-gradient"/><linearGradient id="linear-gradient-14" x1="342.24" y1="-169.61" x2="528.49" y2="-169.61" xlink:href="#linear-gradient"/><linearGradient id="linear-gradient-15" x1="342.24" y1="-169.52" x2="528.49" y2="-169.52" xlink:href="#linear-gradient"/><linearGradient id="linear-gradient-16" x1="342.24" y1="-169.23" x2="528.49" y2="-169.23" xlink:href="#linear-gradient"/><linearGradient id="linear-gradient-17" x1="342.24" y1="-169.04" x2="528.49" y2="-169.04" xlink:href="#linear-gradient"/><linearGradient id="linear-gradient-18" x1="342.24" y1="-168.82" x2="528.49" y2="-168.82" xlink:href="#linear-gradient"/><linearGradient id="linear-gradient-19" x1="342.24" y1="-168.28" x2="528.49" y2="-168.28" xlink:href="#linear-gradient"/><linearGradient id="linear-gradient-20" x1="342.24" y1="-168.04" x2="528.49" y2="-168.04" xlink:href="#linear-gradient"/><linearGradient id="linear-gradient-21" x1="342.24" y1="-167.54" x2="528.49" y2="-167.54" xlink:href="#linear-gradient"/><linearGradient id="linear-gradient-22" x1="342.24" y1="-166.59" x2="528.49" y2="-166.59" xlink:href="#linear-gradient"/><linearGradient id="linear-gradient-23" x1="342.24" y1="-166.42" x2="528.49" y2="-166.42" xlink:href="#linear-gradient"/><linearGradient id="linear-gradient-24" x1="342.24" y1="-164.9" x2="528.49" y2="-164.9" xlink:href="#linear-gradient"/><linearGradient id="linear-gradient-25" x1="342.24" y1="-162.44" x2="528.49" y2="-162.44" xlink:href="#linear-gradient"/><linearGradient id="linear-gradient-26" x1="342.24" y1="-161.84" x2="528.49" y2="-161.84" xlink:href="#linear-gradient"/><linearGradient id="linear-gradient-27" x1="342.24" y1="-161.77" x2="528.49" y2="-161.77" xlink:href="#linear-gradient"/><linearGradient id="linear-gradient-28" x1="342.24" y1="-160.74" x2="528.49" y2="-160.74" xlink:href="#linear-gradient"/><linearGradient id="linear-gradient-29" x1="342.24" y1="-160.57" x2="528.49" y2="-160.57" xlink:href="#linear-gradient"/><linearGradient id="linear-gradient-30" x1="342.24" y1="-159.5" x2="528.49" y2="-159.5" xlink:href="#linear-gradient"/><linearGradient id="linear-gradient-31" x1="342.24" y1="-159.26" x2="528.49" y2="-159.26" xlink:href="#linear-gradient"/><linearGradient id="linear-gradient-32" x1="342.24" y1="-159.09" x2="528.49" y2="-159.09" xlink:href="#linear-gradient"/><linearGradient id="linear-gradient-33" x1="342.24" y1="-158.81" x2="528.49" y2="-158.81" xlink:href="#linear-gradient"/><linearGradient id="linear-gradient-34" x1="342.24" y1="-158.57" x2="528.49" y2="-158.57" xlink:href="#linear-gradient"/><linearGradient id="linear-gradient-35" x1="342.24" y1="-157.5" x2="528.49" y2="-157.5" xlink:href="#linear-gradient"/><linearGradient id="linear-gradient-36" x1="342.24" y1="-157.74" x2="528.49" y2="-157.74" xlink:href="#linear-gradient"/><linearGradient id="linear-gradient-37" x1="342.24" y1="-156.29" x2="528.49" y2="-156.29" xlink:href="#linear-gradient"/><linearGradient id="linear-gradient-38" x1="342.24" y1="-155.82" x2="528.49" y2="-155.82" xlink:href="#linear-gradient"/><linearGradient id="linear-gradient-39" x1="342.24" y1="-153.04" x2="528.49" y2="-153.04" xlink:href="#linear-gradient"/><linearGradient id="linear-gradient-40" x1="342.24" y1="-152.57" x2="528.49" y2="-152.57" xlink:href="#linear-gradient"/><linearGradient id="linear-gradient-41" x1="342.24" y1="-151.92" x2="528.49" y2="-151.92" xlink:href="#linear-gradient"/><linearGradient id="linear-gradient-42" x1="342.24" y1="-151.01" x2="528.49" y2="-151.01" xlink:href="#linear-gradient"/><linearGradient id="linear-gradient" x1="371.01" y1="-181.34" x2="378.31" y2="-181.34" gradientTransform="matrix(1 0 0 -1 -326.29 -94.61)" gradientUnits="userSpaceOnUse"><stop offset="0" stop-color="#976a39"/><stop offset=".32" stop-color="#b08758"/><stop offset=".51" stop-color="#c19b6d"/><stop offset="1" stop-color="#d2b591"/></linearGradient><linearGradient id="linear-gradient-44" x1="342.24" y1="-149.26" x2="528.49" y2="-149.26" xlink:href="#linear-gradient"/><linearGradient id="linear-gradient-45" x1="342.24" y1="-149.21" x2="528.49" y2="-149.21" xlink:href="#linear-gradient"/><linearGradient id="linear-gradient-46" x1="342.24" y1="-148.86" x2="528.49" y2="-148.86" xlink:href="#linear-gradient"/><linearGradient id="linear-gradient-47" x1="342.24" y1="-148.27" x2="528.49" y2="-148.27" xlink:href="#linear-gradient"/><linearGradient id="linear-gradient-48" x1="342.24" y1="-147.96" x2="528.49" y2="-147.96" xlink:href="#linear-gradient"/><linearGradient id="linear-gradient-49" x1="342.24" y1="-146.63" x2="528.49" y2="-146.63" xlink:href="#linear-gradient"/><linearGradient id="linear-gradient-50" x1="342.24" y1="-145.7" x2="528.49" y2="-145.7" xlink:href="#linear-gradient"/><linearGradient id="linear-gradient-51" x1="342.24" y1="-145.12" x2="528.49" y2="-145.12" xlink:href="#linear-gradient"/><linearGradient id="linear-gradient-52" x1="342.24" y1="-144.93" x2="528.49" y2="-144.93" xlink:href="#linear-gradient"/><linearGradient id="linear-gradient-53" x1="342.24" y1="-144.57" x2="528.49" y2="-144.57" xlink:href="#linear-gradient"/><linearGradient id="linear-gradient-54" x1="342.24" y1="-143.36" x2="528.49" y2="-143.36" xlink:href="#linear-gradient"/><linearGradient id="linear-gradient-55" x1="342.24" y1="-140.82" x2="528.49" y2="-140.82" xlink:href="#linear-gradient"/><linearGradient id="linear-gradient-56" x1="342.24" y1="-140.54" x2="528.49" y2="-140.54" xlink:href="#linear-gradient"/><linearGradient id="linear-gradient-57" x1="342.24" y1="-140.44" x2="528.49" y2="-140.44" xlink:href="#linear-gradient"/><linearGradient id="linear-gradient-58" x1="342.24" y1="-139.56" x2="528.49" y2="-139.56" xlink:href="#linear-gradient"/><linearGradient id="linear-gradient-59" x1="342.24" y1="-139.48" x2="528.49" y2="-139.48" xlink:href="#linear-gradient"/><linearGradient id="linear-gradient-60" x1="342.24" y1="-135.89" x2="528.49" y2="-135.89" xlink:href="#linear-gradient"/><linearGradient id="linear-gradient-61" x1="342.24" y1="-135.32" x2="528.49" y2="-135.32" xlink:href="#linear-gradient"/><linearGradient id="linear-gradient-62" x1="342.24" y1="-134.51" x2="528.49" y2="-134.51" xlink:href="#linear-gradient"/><linearGradient id="linear-gradient-63" x1="342.24" y1="-134.4" x2="528.49" y2="-134.4" xlink:href="#linear-gradient"/><linearGradient id="linear-gradient-64" x1="342.24" y1="-134.41" x2="528.49" y2="-134.41" xlink:href="#linear-gradient"/><linearGradient id="linear-gradient-65" x1="342.24" y1="-134.08" x2="528.49" y2="-134.08" xlink:href="#linear-gradient"/><linearGradient id="linear-gradient-66" x1="342.24" y1="-132.55" x2="528.49" y2="-132.55" xlink:href="#linear-gradient"/><linearGradient id="linear-gradient-67" x1="342.24" y1="-129.86" x2="528.49" y2="-129.86" xlink:href="#linear-gradient"/><linearGradient id="linear-gradient-68" x1="342.24" y1="-129.7" x2="528.49" y2="-129.7" xlink:href="#linear-gradient"/><linearGradient id="linear-gradient-69" x1="342.24" y1="-126.18" x2="528.49" y2="-126.18" xlink:href="#linear-gradient"/><linearGradient id="linear-gradient-70" x1="342.24" y1="-125.8" x2="528.49" y2="-125.8" xlink:href="#linear-gradient"/><linearGradient id="linear-gradient-71" x1="342.24" y1="-125.82" x2="528.49" y2="-125.82" xlink:href="#linear-gradient"/><linearGradient id="linear-gradient-72" x1="342.24" y1="-124.86" x2="528.49" y2="-124.86" xlink:href="#linear-gradient"/><linearGradient id="linear-gradient-73" x1="342.24" y1="-123.89" x2="528.49" y2="-123.89" xlink:href="#linear-gradient"/><linearGradient id="linear-gradient-74" x1="342.24" y1="-121.95" x2="528.49" y2="-121.95" xlink:href="#linear-gradient"/><linearGradient id="linear-gradient-75" x1="342.24" y1="-120.64" x2="528.49" y2="-120.64" xlink:href="#linear-gradient"/><linearGradient id="linear-gradient-76" x1="342.24" y1="-118.09" x2="528.49" y2="-118.09" xlink:href="#linear-gradient"/><linearGradient id="linear-gradient-77" x1="342.24" y1="-116" x2="528.49" y2="-116" xlink:href="#linear-gradient"/><linearGradient id="linear-gradient-78" x1="342.24" y1="-113.49" x2="528.49" y2="-113.49" xlink:href="#linear-gradient"/><linearGradient id="linear-gradient-79" x1="342.24" y1="-110.88" x2="528.49" y2="-110.88" xlink:href="#linear-gradient"/><linearGradient id="linear-gradient-80" x1="342.24" y1="-109.93" x2="528.49" y2="-109.93" xlink:href="#linear-gradient"/><linearGradient id="linear-gradient-81" x1="342.24" y1="-103.98" x2="528.49" y2="-103.98" xlink:href="#linear-gradient"/><linearGradient id="linear-gradient-82" x1="418.97" y1="-185.17" x2="418.97" y2="-216.6" gradientTransform="matrix(1 0 0 -1 -326.29 -94.61)" gradientUnits="userSpaceOnUse"><stop offset="0" stop-color="#d1b28c"/><stop offset=".41" stop-color="#d2b48f"/><stop offset="1" stop-color="#010101"/></linearGradient><linearGradient id="linear-gradient-83" x1="388.4" y1="-182.14" x2="388.4" y2="-216.59" gradientTransform="matrix(1 0 0 -1 -326.29 -94.61)" gradientUnits="userSpaceOnUse"><stop offset="0" stop-color="#976a39"/><stop offset=".41" stop-color="#976a39"/><stop offset=".49" stop-color="#8d6335"/><stop offset=".62" stop-color="#714f2b"/><stop offset=".79" stop-color="#44301a"/><stop offset=".99" stop-color="#050403"/><stop offset="1" stop-color="#010101"/></linearGradient><linearGradient id="linear-gradient-84" x1="355.24" y1="-184.01" x2="355.24" y2="-217" xlink:href="#linear-gradient-83"/><linearGradient id="linear-gradient-85" x1="465.13" y1="-188.34" x2="465.13" y2="-208.94" xlink:href="#linear-gradient-82"/><style>.cls-85,.cls-88{fill:#010101}.cls-85{fill-rule:evenodd}</style></defs><path d="M47.56 83.13a3.69 3.69 0 1 0 .8-.09 3.57 3.57 0 0 0-.8.09" style="fill:url(#linear-gradient)"/><path d="M82.68 82.36a3.59 3.59 0 1 0 4.63 2.47v-.1a3.67 3.67 0 0 0-3.47-2.56 3.31 3.31 0 0 0-1.13.19" style="fill:url(#linear-gradient-2)"/><path d="M159.2 81.08a3.26 3.26 0 1 1 .05 0" style="fill:url(#linear-gradient-3)"/><path d="M69.4 80.54a3.75 3.75 0 0 0-2.76 4.36A3.87 3.87 0 0 0 71 87.71a3.81 3.81 0 0 0 2.76-4.4 3.76 3.76 0 0 0-3.62-2.86 3 3 0 0 0-.73.09" style="fill:url(#linear-gradient-4)"/><path d="M150.35 78.51a3.41 3.41 0 1 0 4.36 2.67 3.65 3.65 0 0 0-4.39-2.67" style="fill:url(#linear-gradient-5)"/><path d="M175.81 78.44a3.61 3.61 0 0 0-2.52 4.44 3.66 3.66 0 0 0 7-2.06 3.58 3.58 0 0 0-3.48-2.54 3.68 3.68 0 0 0-1 .15" style="fill:url(#linear-gradient-6)"/><path d="M128.36 78a3.81 3.81 0 0 0-2.77 4.35A3.93 3.93 0 0 0 130 85.1a3.69 3.69 0 0 0 2.76-4.38 3.62 3.62 0 0 0-3.54-2.84 4.38 4.38 0 0 0-.8.1" style="fill:url(#linear-gradient-7)"/><path d="M190.21 77.43A3.87 3.87 0 0 0 187.8 82a3.7 3.7 0 0 0 4.61 2.38 3.64 3.64 0 0 0 2.39-4.54 3.87 3.87 0 0 0-3.58-2.59 3.17 3.17 0 0 0-1 .15" style="fill:url(#linear-gradient-8)"/><path d="M107.17 76.35a3.61 3.61 0 0 0-2.64 4.38 3.62 3.62 0 1 0 7-1.79 3.56 3.56 0 0 0-4.39-2.64" style="fill:url(#linear-gradient-9)"/><path d="M32.55 75.14a3.69 3.69 0 1 0 .8-.09 3.57 3.57 0 0 0-.8.09" style="fill:url(#linear-gradient-10)"/><path d="M78.21 74.06a3.67 3.67 0 1 0 1-.13 4.06 4.06 0 0 0-1 .13" style="fill:url(#linear-gradient-11)"/><path d="M45.12 73.44a3.69 3.69 0 1 0 4.35 2.76 3.59 3.59 0 0 0-4.24-2.79h-.11" style="fill:url(#linear-gradient-12)"/><path d="M167.34 72.68a3.6 3.6 0 0 0-2.58 4.4 3.65 3.65 0 1 0 2.57-4.43" style="fill:url(#linear-gradient-13)"/><path d="M97.72 71.53a3.58 3.58 0 0 0-2.55 4.37.14.14 0 0 1 0 .07 3.63 3.63 0 1 0 7-2 3.56 3.56 0 0 0-4.46-2.48" style="fill:url(#linear-gradient-14)"/><path d="M66 71.35a3.67 3.67 0 1 0 .88-.1 3.33 3.33 0 0 0-.84.1" style="fill:url(#linear-gradient-15)"/><path d="M55 71.3a3.41 3.41 0 1 0 4.43 2.7 3.74 3.74 0 0 0-3.6-2.76 3.23 3.23 0 0 0-.82.1" style="fill:url(#linear-gradient-16)"/><path d="M87.89 71a3.59 3.59 0 0 0-2.48 4.43 3.62 3.62 0 1 0 6.95-2A3.6 3.6 0 0 0 87.89 71" style="fill:url(#linear-gradient-17)"/><path d="M138.6 70.66a3.61 3.61 0 0 0 1.19 7.13h.2a3.69 3.69 0 0 0 2.88-4.26 3.6 3.6 0 0 0-3.53-2.91 3.65 3.65 0 0 0-.74.08" style="fill:url(#linear-gradient-18)"/><path d="M181.73 70.12a3.56 3.56 0 0 0-2.51 4.37v.09a3.59 3.59 0 0 0 7-1.62c0-.1-.05-.2-.08-.3a3.64 3.64 0 0 0-3.45-2.66 3.21 3.21 0 0 0-.92.14" style="fill:url(#linear-gradient-19)"/><path d="M114.54 70a3.6 3.6 0 1 0 4.5 2.51 3.7 3.7 0 0 0-3.54-2.64 3.58 3.58 0 0 0-.92.13" style="fill:url(#linear-gradient-20)"/><path d="M158.21 69.36a3.7 3.7 0 0 0-2.64 4.39 3.59 3.59 0 0 0 4.27 2.73 3.89 3.89 0 0 0 2.71-4.42 3.85 3.85 0 0 0-3.68-2.76 3.06 3.06 0 0 0-.74.09" style="fill:url(#linear-gradient-21)"/><path d="M148.45 68.42a3.74 3.74 0 0 0-2.71 4.39 3.86 3.86 0 0 0 4.38 2.76 3.69 3.69 0 0 0-.92-7.25 3.82 3.82 0 0 0-.75.08" style="fill:url(#linear-gradient-22)"/><path d="M126 68.31a3.86 3.86 0 0 0-2.41 4.61 3.76 3.76 0 0 0 4.6 2.35A3.61 3.61 0 0 0 127 68.2a3.57 3.57 0 0 0-1 .15" style="fill:url(#linear-gradient-23)"/><path d="M191.79 66.81a3.61 3.61 0 1 0 1-.13 3.61 3.61 0 0 0-1 .13" style="fill:url(#linear-gradient-24)"/><path d="M75.85 64.37a3.56 3.56 0 0 0-2.49 4.38v.11a3.62 3.62 0 0 0 6.94-2 3.56 3.56 0 0 0-3.41-2.62 3.47 3.47 0 0 0-1.07.16" style="fill:url(#linear-gradient-25)"/><path d="M172.94 63.7a3.75 3.75 0 0 0-2.57 4.47 3.62 3.62 0 0 0 4.44 2.57 3.68 3.68 0 0 0 2.61-4.45 3.82 3.82 0 0 0-3.64-2.7 3 3 0 0 0-.84.11" style="fill:url(#linear-gradient-26)"/><path d="M106.88 63.66a3.38 3.38 0 0 0-2.54 4l.06.21a3.52 3.52 0 0 0 4.1 2.82l.25-.06a3.62 3.62 0 0 0-.88-7.13 3.31 3.31 0 0 0-1 .16" style="fill:url(#linear-gradient-27)"/><path d="M44.66 62.63a3.63 3.63 0 1 0 1.86 7 3.7 3.7 0 0 0 2.58-4.45 3.58 3.58 0 0 0-3.48-2.68 3.89 3.89 0 0 0-1 .12" style="fill:url(#linear-gradient-28)"/><path d="M31.56 62.37a3.71 3.71 0 1 0 .81-.09 3.72 3.72 0 0 0-.81.09" style="fill:url(#linear-gradient-29)"/><path d="M65 61.39a3.6 3.6 0 0 0-2.62 4.37A3.62 3.62 0 1 0 65 61.39" style="fill:url(#linear-gradient-30)"/><path d="M134.52 61.19a3.59 3.59 0 1 0 1.82 6.94h.12a3.58 3.58 0 0 0 2.54-4.41v-.06a3.42 3.42 0 0 0-3.38-2.61 4.83 4.83 0 0 0-1.07.14" style="fill:url(#linear-gradient-31)"/><path d="M54.57 61A3.53 3.53 0 0 0 52 65.23v.17a3.61 3.61 0 0 0 4.41 2.6A3.69 3.69 0 0 0 59 63.53 3.6 3.6 0 0 0 54.57 61" style="fill:url(#linear-gradient-32)"/><path d="M86.66 60.69a3.69 3.69 0 0 0-2.52 4.48 3.83 3.83 0 0 0 4.51 2.57 3.79 3.79 0 0 0 2.52-4.52 3.7 3.7 0 0 0-3.55-2.66 4.08 4.08 0 0 0-.92.13" style="fill:url(#linear-gradient-33)"/><path d="M97.5 60.47a3.61 3.61 0 0 0-2.56 4.42 3.46 3.46 0 0 0 4.15 2.6l.25-.07a3.52 3.52 0 0 0 2.66-4.24v-.14a3.7 3.7 0 0 0-3.53-2.69 3.57 3.57 0 0 0-.92.12" style="fill:url(#linear-gradient-34)"/><path d="M120.07 59.61A3.84 3.84 0 0 0 117.3 64a3.69 3.69 0 0 0 7.1-1.65 3.84 3.84 0 0 0-3.69-2.82 2.79 2.79 0 0 0-.7.08" style="fill:url(#linear-gradient-35)"/><path d="M163.36 59.67a3.57 3.57 0 0 0-2.36 4.44v.09a3.62 3.62 0 0 0 4.53 2.39 3.69 3.69 0 0 0 2.38-4.59 3.59 3.59 0 0 0-3.45-2.53 3.77 3.77 0 0 0-1.1.17" style="fill:url(#linear-gradient-36)"/><path d="M144 58.19a3.58 3.58 0 1 0 1.43 7h.21a3.58 3.58 0 1 0-1.66-7" style="fill:url(#linear-gradient-37)"/><path d="M153.59 57.65a3.68 3.68 0 1 0 1-.13 4 4 0 0 0-1 .13" style="fill:url(#linear-gradient-38)"/><path d="M76.18 55a3.64 3.64 0 1 0 4.53 2.44 3.68 3.68 0 0 0-3.51-2.58 3.18 3.18 0 0 0-1 .16" style="fill:url(#linear-gradient-39)"/><path d="M176.68 54.48a3.6 3.6 0 1 0 4.32 2.63 3.54 3.54 0 0 0-3.48-2.76 3.18 3.18 0 0 0-.92.11" style="fill:url(#linear-gradient-40)"/><path d="M110.61 53.78a3.84 3.84 0 0 0-2.49 4.6 3.79 3.79 0 0 0 4.61 2.42 3.69 3.69 0 0 0 2.46-4.53 3.83 3.83 0 0 0-3.6-2.6 3.6 3.6 0 0 0-.92.14" style="fill:url(#linear-gradient-41)"/><path d="M127.71 52.89a3.68 3.68 0 0 0-2.62 4.41 3.6 3.6 0 0 0 4.4 2.58 3.68 3.68 0 0 0 2.67-4.39 3.79 3.79 0 0 0-3.63-2.7 3.31 3.31 0 0 0-.83.1" style="fill:url(#linear-gradient-42)"/><path d="M66.58 51.32a3.68 3.68 0 0 0 1.71 7.09A3.84 3.84 0 0 0 71.05 54a3.9 3.9 0 0 0-3.69-2.77 3.65 3.65 0 0 0-.74.08" style="fill:url(#linear-gradient-43)"/><path d="M100.48 51.13a3.6 3.6 0 1 0 1.62 7 3.5 3.5 0 0 0 2.72-4.13v-.18a3.55 3.55 0 0 0-4.34-2.65" style="fill:url(#linear-gradient-44)"/><path d="M88.51 51.09A3.79 3.79 0 0 0 86 55.62a3.85 3.85 0 0 0 4.52 2.55 4 4 0 0 0 2.52-4.61 3.83 3.83 0 0 0-3.63-2.62 3.2 3.2 0 0 0-.92.13" style="fill:url(#linear-gradient-45)"/><path d="M190.9 50.76a3.61 3.61 0 1 0 1-.13 4.08 4.08 0 0 0-.92.13" style="fill:url(#linear-gradient-46)"/><path d="M56.37 50.12a3.65 3.65 0 0 0 1.75 7.09 3.87 3.87 0 0 0 2.66-4.43A3.78 3.78 0 0 0 57.16 50a3.48 3.48 0 0 0-.79.09" style="fill:url(#linear-gradient-47)"/><path d="M166.39 49.75a3.68 3.68 0 0 0 .92 7.31 3.63 3.63 0 0 0 1.08-.31 3.68 3.68 0 0 0-1-7.14 3.21 3.21 0 0 0-.92.14" style="fill:url(#linear-gradient-48)"/><path d="M136.55 48.5A3.77 3.77 0 0 0 134 53a3.66 3.66 0 0 0 4.49 2.53 3.59 3.59 0 0 0 2.54-4.4.24.24 0 0 1 0-.08 3.68 3.68 0 0 0-3.54-2.69 3.2 3.2 0 0 0-.92.13" style="fill:url(#linear-gradient-49)"/><path d="M156.21 47.29a3.68 3.68 0 0 0-2.49 4.52 3.68 3.68 0 1 0 7.31-.92 3.56 3.56 0 0 0-.32-1.1 3.69 3.69 0 0 0-3.55-2.64 3.6 3.6 0 0 0-.92.14" style="fill:url(#linear-gradient-50)"/><path d="M42.26 46.92a3.69 3.69 0 1 0 .81-.09 3.72 3.72 0 0 0-.81.09" style="fill:url(#linear-gradient-51)"/><path d="M146.23 46.86a3.67 3.67 0 0 0-2.65 4.41 3.64 3.64 0 0 0 7-1.75 3.75 3.75 0 0 0-3.6-2.76 3.07 3.07 0 0 0-.8.09" style="fill:url(#linear-gradient-52)"/><path d="M117.66 46.52a3.6 3.6 0 1 0 2 6.91h.14a3.54 3.54 0 0 0 2.4-4.39v-.12a3.59 3.59 0 0 0-3.41-2.54 3.55 3.55 0 0 0-1.12.18" style="fill:url(#linear-gradient-53)"/><path d="M79.33 45.26a3.61 3.61 0 0 0 1.72 7l.24-.07a3.69 3.69 0 0 0 2.53-4.47 3.61 3.61 0 0 0-4.45-2.49" style="fill:url(#linear-gradient-54)"/><path d="M105.93 42.76a3.59 3.59 0 1 0 1-.15 3.43 3.43 0 0 0-1 .15" style="fill:url(#linear-gradient-55)"/><path d="M176.93 42.44a3.65 3.65 0 1 0 .93-.12 3.61 3.61 0 0 0-.93.12" style="fill:url(#linear-gradient-56)"/><path d="M92.93 42.32a3.57 3.57 0 1 0 .87-.11 3.63 3.63 0 0 0-.87.11" style="fill:url(#linear-gradient-57)"/><path d="M69.93 41.34a3.68 3.68 0 0 0 .85 7.32 3.61 3.61 0 0 0 1.07-.29 3.69 3.69 0 0 0-.92-7.16 3.54 3.54 0 0 0-1 .13" style="fill:url(#linear-gradient-58)"/><path d="M126.1 41a3.68 3.68 0 0 0-2.76 4.37 3.68 3.68 0 1 0 7.34-.62 3.9 3.9 0 0 0-.23-1 3.74 3.74 0 0 0-3.58-2.75 3.48 3.48 0 0 0-.79.09" style="fill:url(#linear-gradient-59)"/><path d="M135.44 37.8a3.62 3.62 0 1 0 1-.15 4.5 4.5 0 0 0-1 .15" style="fill:url(#linear-gradient-60)"/><path d="M156.57 37.28a3.44 3.44 0 0 0-2.5 4.19 2.68 2.68 0 0 0 .07.27 3.5 3.5 0 0 0 4.3 2.43l.2-.06a3.56 3.56 0 0 0-.92-7 3.85 3.85 0 0 0-1.12.17" style="fill:url(#linear-gradient-61)"/><path d="M62.28 36.31a3.69 3.69 0 1 0 .8-.09 3.57 3.57 0 0 0-.8.09" style="fill:url(#linear-gradient-62)"/><path d="M113.56 36.32a3.69 3.69 0 1 0 1-.14 3.61 3.61 0 0 0-1 .14" style="fill:url(#linear-gradient-63)"/><path d="M146.12 36.25a3.64 3.64 0 0 0 1.57 7.11 3.63 3.63 0 0 0-.84-7.18 4.4 4.4 0 0 0-.73.07" style="fill:url(#linear-gradient-64)"/><path d="M84.66 36a3.69 3.69 0 0 0-2.76 4.34A3.61 3.61 0 0 0 86.25 43 3.69 3.69 0 0 0 89 38.64a3.83 3.83 0 0 0-3.68-2.76 2.81 2.81 0 0 0-.71.07" style="fill:url(#linear-gradient-65)"/><path d="M99.35 34.46a3.55 3.55 0 0 0-2.57 4.32v.11a3.64 3.64 0 1 0 2.56-4.43" style="fill:url(#linear-gradient-66)"/><path d="M75.59 31.74a3.58 3.58 0 0 0-2.65 4.33 3.67 3.67 0 0 0 4.37 2.66 3.62 3.62 0 0 0-.92-7.14 3.31 3.31 0 0 0-.83.1" style="fill:url(#linear-gradient-67)"/><path d="M122.32 31.33a3.68 3.68 0 0 0-2.42 4.53 3.69 3.69 0 0 0 7.29-1.1 4 4 0 0 0-.31-1 3.68 3.68 0 0 0-3.54-2.54 3.18 3.18 0 0 0-1 .14" style="fill:url(#linear-gradient-68)"/><path d="M132.53 28.05a3.84 3.84 0 0 0-2.45 4.61 3.58 3.58 0 0 0 4.44 2.42h.17a3.42 3.42 0 0 0 2.38-4.21s0-.09 0-.14a3.68 3.68 0 0 0-3.56-2.76 2.88 2.88 0 0 0-.92.13" style="fill:url(#linear-gradient-69)"/><path d="M91.66 27.68A3.56 3.56 0 0 0 89.08 32a.36.36 0 0 1 0 .1 3.61 3.61 0 0 0 4.38 2.61 3.69 3.69 0 0 0-.92-7.16 3.57 3.57 0 0 0-.92.12" style="fill:url(#linear-gradient-70)"/><path d="M107.34 27.66a3.68 3.68 0 1 0 .92-.13 3.58 3.58 0 0 0-.92.13" style="fill:url(#linear-gradient-71)"/><path d="M143.64 26.67a3.52 3.52 0 0 0-2.66 4.2c0 .05 0 .11.05.16a3.57 3.57 0 0 0 4.2 2.79h.11a3.68 3.68 0 0 0-.92-7.18 3.57 3.57 0 0 0-.8.09" style="fill:url(#linear-gradient-72)"/><path d="M159.4 25.8a3.61 3.61 0 1 0 1.94 7 3.51 3.51 0 0 0 2.54-4.29.74.74 0 0 0 0-.14 3.56 3.56 0 0 0-4.4-2.53" style="fill:url(#linear-gradient-73)"/><path d="M81.78 23.74a3.69 3.69 0 1 0 .81-.09 3.69 3.69 0 0 0-.81.09" style="fill:url(#linear-gradient-74)"/><path d="M117.18 22.53a3.9 3.9 0 0 0-2.66 4.47 3.87 3.87 0 0 0 4.5 2.59 3.72 3.72 0 0 0 2.62-4.44 3.86 3.86 0 0 0-3.64-2.76 3.31 3.31 0 0 0-.83.1" style="fill:url(#linear-gradient-75)"/><path d="M49.69 19.88a3.7 3.7 0 1 0 .81-.09 3.7 3.7 0 0 0-.81.09" style="fill:url(#linear-gradient-76)"/><path d="M99 17.8a3.69 3.69 0 1 0 .8-.09 3.57 3.57 0 0 0-.8.09" style="fill:url(#linear-gradient-77)"/><path d="M136.82 15.4a3.61 3.61 0 1 0 1.93 7 3.51 3.51 0 0 0 2.55-4.27v-.16a3.56 3.56 0 0 0-4.4-2.53" style="fill:url(#linear-gradient-78)"/><path d="M74.06 12.75a3.63 3.63 0 1 0 .8-.1 3.58 3.58 0 0 0-.8.1" style="fill:url(#linear-gradient-79)"/><path d="M155.84 11.83a3.62 3.62 0 0 0 1.93 7 3.54 3.54 0 0 0 2.55-4.3v-.13a3.61 3.61 0 0 0-3.48-2.67 4.08 4.08 0 0 0-.92.13" style="fill:url(#linear-gradient-80)"/><path d="M120.18 5.89a3.61 3.61 0 1 0 1.93 7 3.53 3.53 0 0 0 2.55-4.29.57.57 0 0 1 0-.14 3.6 3.6 0 0 0-3.47-2.66 3.91 3.91 0 0 0-1 .13" style="fill:url(#linear-gradient-81)"/><path d="M100 92.59v19.17a2.51 2.51 0 0 0 .15.86H81.38V97.54l-3.8 2V113c0 6.32-3.64 7.49-5.53 7.49l1.48 1.51a8.63 8.63 0 0 0 7.74-7.69h17.5l1.42-1.46a2.59 2.59 0 0 0 2.27 1.46h1.32V90.56Zm9.46 0v21.7h3.84V90.56Z" style="fill:url(#linear-gradient-82)"/><path d="M56.62 105.28c0-6.27 3.64-7.37 5.53-7.37s5.53 1.07 5.53 7.37v7.37h-5.53c-1.84 0-5.53-1.07-5.53-7.37m-3.85 0c0 5.47 4.16 9 9.36 9h4.2l1.32-1.42v.14c0 6.32-3.69 7.49-5.53 7.49L63.6 122a8.72 8.72 0 0 0 7.84-9v-7.75c0-5.46-4.15-9-9.32-9s-9.3 3.53-9.3 9m4.46-15a2.44 2.44 0 0 0 .81 1.84A3 3 0 0 0 56 93.27l1.42.75A2.13 2.13 0 0 1 59.55 93h3.54v-1h-2.76c-.82 0-1.32-.65-1.32-1.77s.5-1.84 1.32-1.84 1.16.51 1.26 1.37l1.52-.76a3.35 3.35 0 0 0-2.77-1.51 2.87 2.87 0 0 0-3.08 2.77" style="fill:url(#linear-gradient-83)"/><path d="m39.11 120 2.39 2.38 2.42-2.38-2.42-2.38Zm5.11 0 2.38 2.38L49 120l-2.43-2.38Zm-31.5-14.74c0-6.27 3.68-7.37 5.52-7.37s5.53 1.07 5.53 7.37v6.45a2.57 2.57 0 0 0 .15.87h-5.67c-1.84 0-5.52-1.07-5.52-7.37m-3.85 0c0 5.47 4.14 9 9.35 9h4.35l1.42-1.45a2.49 2.49 0 0 0 2.28 1.47h17.23l1.42-1.47a2.6 2.6 0 0 0 2.28 1.47h1.31V97.54l-3.84 2v12.19a2.51 2.51 0 0 0 .15.86H27.54v-7.37c0-5.46-4.16-9-9.31-9s-9.36 3.54-9.36 9m4.24-13.46 2.38 2.38 2.43-2.38-2.43-2.43Zm5.17 0 2.38 2.38L23 91.79l-2.37-2.43Z" style="fill:url(#linear-gradient-84)"/><path class="cls-85" d="m172.47 120.04 2.37 2.38 2.44-2.38-2.44-2.38-2.37 2.38zM167.36 120.04l2.38 2.38 2.42-2.38-2.42-2.38-2.38 2.38z"/><path d="M151 99.6v12.19a2.34 2.34 0 0 0 .15.87h-18.9c-1.85 0-5.53-1.07-5.53-7.37v-6.58l-3.8 2v4.55c0 5.46 4.16 9 9.32 9h17.56l1.41-1.47a2.54 2.54 0 0 0 2.28 1.47h1.26V97.58Zm-17-3.49 2.38 2.43 2.43-2.43-2.43-2.38Zm5.42 0 2.43 2.43 2.38-2.43-2.38-2.38Z" style="fill:url(#linear-gradient-85)"/><path d="M185.37 92.62v19.17a2.57 2.57 0 0 0 .15.87h-8.75V97.58l-3.84 2v12.19a2.34 2.34 0 0 0 .14.87h-8.78V90.6l-3.85 2v21.71h11.29l1.41-1.48a2.57 2.57 0 0 0 2.27 1.48h8.77l1.4-1.48a2.59 2.59 0 0 0 2.29 1.48H209l2.08-1.44v.13c0 .78-.1 1.34.92 1.34h1.84v-4.61a10.54 10.54 0 0 0-.57-3.77 6.19 6.19 0 0 0-2.63-2.84l-6.17-3.94 11.81-8.5H212l-10.7 7.58v2.26l7.57 4.82a4 4 0 0 1 1.73 1.91 7.63 7.63 0 0 1 .46 2.84v2.64h-21.85V90.6Z" style="fill:url(#linear-gradient-86)"/><path class="cls-85" d="M37.26 133.08c-.5 1.17-.92 2.2-1.37 3.15-.19-.5-.6-1.56-1.32-3.15l-1.33-2.92H30.9l5 10.27h.1l5-10.27h-2.42Z"/><path class="cls-88" d="M44.87 130.16h2.16v10.11h-2.16z"/><path class="cls-85" d="M55.58 134.45a6.25 6.25 0 0 1-1.47-.77.91.91 0 0 1 0-1.55 2.39 2.39 0 0 1 1.26-.26 4.62 4.62 0 0 1 2.46.61v-2a6.93 6.93 0 0 0-2.63-.48 4.18 4.18 0 0 0-2.64.79 2.76 2.76 0 0 0-1 2.16 2.65 2.65 0 0 0 .69 1.93 5.44 5.44 0 0 0 2.11 1.21 8.73 8.73 0 0 1 1.55.72 1 1 0 0 1 .42.8c0 .49-.38.79-1.21.92a3.54 3.54 0 0 1-.92.07 6.4 6.4 0 0 1-2.53-.75v2.08a7.66 7.66 0 0 0 3 .57 4.37 4.37 0 0 0 2.76-.76 2.66 2.66 0 0 0 1-2.16 2.34 2.34 0 0 0-.72-1.84 6.2 6.2 0 0 0-2.13-1.29Z"/><path class="cls-88" d="M62.95 130.16h2.16v10.11h-2.16z"/><path class="cls-85" d="M74.93 130a5.18 5.18 0 0 0-5.31 5.26 4.89 4.89 0 0 0 1.52 3.68 5 5 0 0 0 3.79 1.52 5.18 5.18 0 0 0 5.26-5.11v-.11a5.13 5.13 0 0 0-1.52-3.75 5.19 5.19 0 0 0-3.74-1.49Zm2.19 7.56a3.13 3.13 0 0 1-4.43 0 3.23 3.23 0 0 1-.92-2.3 3.17 3.17 0 0 1 .92-2.31 3 3 0 0 1 4.21-.22 2.28 2.28 0 0 1 .22.22 3.39 3.39 0 0 1 0 4.61ZM91.03 135.92l-.64-.57-5.52-5.33h-.11v10.25h2.11v-5.71l.69.56 5.52 5.31h.08v-10.27h-2.13v5.76zM107.42 137.54a3.14 3.14 0 0 1-.92-2.3 3.28 3.28 0 0 1 .92-2.35 3.38 3.38 0 0 1 2.42-.92 6.12 6.12 0 0 1 2.77.73v-2a5.76 5.76 0 0 0-3-.72 5.16 5.16 0 0 0-5.34 5.26 5.17 5.17 0 0 0 5.26 5.2 7 7 0 0 0 3.11-.64v-2a6.46 6.46 0 0 1-3 .68 3.06 3.06 0 0 1-2.22-.94ZM121.91 130a5.17 5.17 0 0 0-3.79 1.51 5.11 5.11 0 0 0-1.51 3.75 4.9 4.9 0 0 0 1.51 3.68 5.05 5.05 0 0 0 3.79 1.52 5.18 5.18 0 0 0 5.26-5.11v-.11a5.17 5.17 0 0 0-5.09-5.26h-.17Zm2.23 7.56a2.94 2.94 0 0 1-2.23.92 2.8 2.8 0 0 1-2.24-.92 3.23 3.23 0 0 1-.92-2.3 3.17 3.17 0 0 1 .92-2.31 2.86 2.86 0 0 1 2.24-1 3 3 0 0 1 2.23 1 3.44 3.44 0 0 1 0 4.61ZM133.88 130.16h-2.16v10.11h6.02v-1.81h-3.86v-8.3zM144.25 130.16h-2.16v10.11h6.06v-1.81h-3.9v-8.3zM154.61 136.03h3.68v-1.74h-3.68v-2.31h4.36v-1.82h-6.51v10.11h6.7v-1.81h-4.55v-2.43zM169.87 138.31a3.92 3.92 0 0 1-1.36.18 3.27 3.27 0 0 1-2.39-.92 3.51 3.51 0 0 1-.87-2.35 3.18 3.18 0 0 1 3-3.3h.29a7.22 7.22 0 0 1 3 .73v-2a7.4 7.4 0 0 0-3.14-.68 5.24 5.24 0 0 0-3.86 1.51 5.29 5.29 0 0 0 0 7.5 5.36 5.36 0 0 0 3.9 1.47 7 7 0 0 0 3.4-.75v-4.1h-2ZM178.83 136.03h3.68v-1.74h-3.68v-2.31h4.32v-1.82h-6.51v10.11h6.73v-1.81h-4.54v-2.43zM193.48 135.69a6.06 6.06 0 0 0-2.16-1.24 6.45 6.45 0 0 1-1.47-.77.9.9 0 0 1-.46-.75.93.93 0 0 1 .5-.8 2.32 2.32 0 0 1 1.24-.26 4.65 4.65 0 0 1 2.47.61v-2a6.92 6.92 0 0 0-2.6-.48 4.21 4.21 0 0 0-2.66.79 2.91 2.91 0 0 0-.34 4.09 5.89 5.89 0 0 0 2.17 1.21 9 9 0 0 1 1.54.72 1 1 0 0 1 .42.8c0 .49-.42.79-1.21.92a3.54 3.54 0 0 1-.92.07 6.4 6.4 0 0 1-2.53-.75v2.08a7.66 7.66 0 0 0 3 .57 4.31 4.31 0 0 0 2.76-.76 2.65 2.65 0 0 0 1-2.16 2.35 2.35 0 0 0-.75-1.89Z"/></svg>